<svg width="24" height="24" viewBox="0 0 24 24" fill="none" xmlns="http://www.w3.org/2000/svg">
<g clip-path="url(#clip0_4760_11083)">
<path fill-rule="evenodd" clip-rule="evenodd" d="M2 6C2 4.34315 3.34315 3 5 3H19C20.6569 3 22 4.34315 22 6V16C22 17.6569 20.6569 19 19 19H5C3.34315 19 2 17.6569 2 16V6ZM5 5H19C19.5523 5 20 5.44771 20 6V7H4V6C4 5.44772 4.44772 5 5 5ZM4 9V16C4 16.5523 4.44772 17 5 17H19C19.5523 17 20 16.5523 20 16V9H4Z" fill="#666667"/>
<path fill-rule="evenodd" clip-rule="evenodd" d="M6 14C6 13.4477 6.44772 13 7 13H13C13.5523 13 14 13.4477 14 14C14 14.5523 13.5523 15 13 15H7C6.44772 15 6 14.5523 6 14Z" fill="#00B74F"/>
</g>
<defs>
<clipPath id="clip0_4760_11083">
<rect width="24" height="24" fill="white"/>
</clipPath>
</defs>
</svg>
