<svg width="24" height="24" viewBox="0 0 24 24" fill="none" xmlns="http://www.w3.org/2000/svg">
<circle cx="12" cy="12" r="12" fill="#E6F7ED"/>
<path d="M11.0825 6.11573C11.4307 5.31285 12.5693 5.31285 12.9175 6.11573L13.9376 8.46823C14.0825 8.80238 14.3976 9.03133 14.7602 9.06588L17.3128 9.30911C18.1839 9.39212 18.5358 10.475 17.8798 11.0542L15.9577 12.7514C15.6846 12.9924 15.5643 13.3629 15.6435 13.7184L16.2009 16.2212C16.3912 17.0754 15.47 17.7446 14.7164 17.2997L12.5084 15.9961C12.1948 15.811 11.8052 15.811 11.4916 15.9961L9.28355 17.2997C8.52997 17.7446 7.60882 17.0754 7.79908 16.2212L8.35654 13.7184C8.43573 13.3629 8.31536 12.9924 8.04234 12.7514L6.12022 11.0542C5.46422 10.475 5.81607 9.39212 6.68724 9.30911L9.23983 9.06588C9.6024 9.03133 9.91752 8.80238 10.0624 8.46823L11.0825 6.11573Z" fill="#00B74F"/>
</svg>
