<svg width="18" height="18" viewBox="0 0 18 18" fill="none" xmlns="http://www.w3.org/2000/svg">
<path d="M8.96241 10.0983L12.5303 6.53033C12.8232 6.23744 12.8232 5.76256 12.5303 5.46967C12.2374 5.17678 11.7626 5.17678 11.4697 5.46967L7.90175 9.03759L8.96241 10.0983Z" fill="#00B74F"/>
<path d="M6.22026 12.6594L4.73013 11.1693C4.72662 11.1659 4.72313 11.1625 4.71967 11.159L2.78033 9.21967C2.48744 8.92678 2.01256 8.92678 1.71967 9.21967C1.42678 9.51256 1.42678 9.98744 1.71967 10.2803L3.65901 12.2197C4.35178 12.9124 5.3839 13.059 6.22026 12.6594Z" fill="#00B74F"/>
<path fill-rule="evenodd" clip-rule="evenodd" d="M16.2807 5.43256C16.5736 5.72545 16.5736 6.20033 16.2807 6.49322L10.5539 12.2201C9.6752 13.0987 8.25058 13.0987 7.3719 12.2201L5.43256 10.2807C5.13967 9.98782 5.13967 9.51294 5.43256 9.22005C5.72545 8.92716 6.20033 8.92716 6.49322 9.22005L8.43256 11.1594C8.72545 11.4523 9.20033 11.4523 9.49322 11.1594L15.2201 5.43256C15.5129 5.13967 15.9878 5.13967 16.2807 5.43256Z" fill="#666667"/>
</svg>
