<svg width="24" height="24" viewBox="0 0 24 24" fill="none" xmlns="http://www.w3.org/2000/svg">
<path d="M20.6641 0.620712C20.2624 0.435707 19.7891 0.507641 19.4605 0.803582L17.9008 2.18466L15.7788 0.286444C15.3524 -0.0954812 14.707 -0.0954812 14.2807 0.286444L12.1604 2.18286L10.0396 0.286444C9.61312 -0.0954812 8.96762 -0.0954812 8.54119 0.286444L6.41858 2.18466L4.85738 0.803638C4.39673 0.394176 3.69132 0.435707 3.28186 0.896365C3.09854 1.10261 2.99812 1.3695 3.00003 1.64543V22.3546C2.99637 22.9718 3.49379 23.4751 4.11101 23.4788C4.387 23.4804 4.65389 23.3798 4.86019 23.1964L6.41993 21.8153L8.54198 23.7136C8.9683 24.0955 9.61374 24.0955 10.0401 23.7136L12.1604 21.8169L14.281 23.7133C14.7074 24.0952 15.3529 24.0952 15.7794 23.7133L17.902 21.8152L19.4632 23.1962C19.9238 23.6058 20.6292 23.5644 21.0387 23.1038C21.2222 22.8975 21.3226 22.6304 21.3207 22.3543V1.64543C21.3263 1.20332 21.068 0.800378 20.6641 0.620712ZM18.6443 20.9733C18.2179 20.5956 17.5762 20.5973 17.1518 20.9773L15.0298 22.8755L12.9094 20.9791C12.4831 20.5971 11.8376 20.5971 11.4112 20.9791L9.2906 22.8755L7.1677 20.9773C6.74498 20.5974 6.10431 20.5956 5.67951 20.9733L4.124 22.3539V19.3583L4.11838 1.64572L5.67642 3.02646C6.1028 3.40417 6.74458 3.40248 7.16894 3.02247L9.29093 1.12431L11.4113 3.02072C11.8377 3.40265 12.4832 3.40265 12.9095 3.02072L15.0301 1.12431L17.153 3.02247C17.5758 3.40242 18.2164 3.40417 18.6412 3.02651L20.1967 1.64543V15.8812L20.2024 22.3541L18.6443 20.9733Z" fill="#666667"/>
<path d="M17.486 11.4375H6.83152C6.52113 11.4375 6.26953 11.6891 6.26953 11.9995C6.26953 12.3099 6.52113 12.5615 6.83152 12.5615H17.486C17.7963 12.5615 18.0479 12.3099 18.0479 11.9995C18.0479 11.6891 17.7963 11.4375 17.486 11.4375Z" fill="#00B74F"/>
<path d="M12.4281 8.07031H6.83152C6.52113 8.07031 6.26953 8.32191 6.26953 8.6323C6.26953 8.94268 6.52113 9.19428 6.83152 9.19428H12.4281C12.7385 9.19428 12.9901 8.94268 12.9901 8.6323C12.9901 8.32191 12.7384 8.07031 12.4281 8.07031Z" fill="#00B74F"/>
<path d="M17.486 14.8125H6.83152C6.52113 14.8125 6.26953 15.0641 6.26953 15.3745C6.26953 15.6849 6.52113 15.9365 6.83152 15.9365H17.486C17.7963 15.9365 18.0479 15.6849 18.0479 15.3745C18.0479 15.0641 17.7963 14.8125 17.486 14.8125Z" fill="#00B74F"/>
</svg>
