<svg width="24" height="24" viewBox="0 0 24 24" fill="none" xmlns="http://www.w3.org/2000/svg">
<circle cx="12" cy="12" r="12" fill="#E6F7ED"/>
<path d="M9.83334 10.3333C9.83334 10.0577 10.0577 9.83333 10.3333 9.83333C10.609 9.83333 10.8333 10.0577 10.8333 10.3333C10.8333 10.609 10.609 10.8333 10.3333 10.8333C10.0577 10.8333 9.83334 10.609 9.83334 10.3333ZM13.6667 13.1667C13.391 13.1667 13.1667 13.391 13.1667 13.6667C13.1667 13.9423 13.391 14.1667 13.6667 14.1667C13.9423 14.1667 14.1667 13.9423 14.1667 13.6667C14.1667 13.391 13.9423 13.1667 13.6667 13.1667ZM18.176 13.4097C18.1505 13.5222 18.2962 13.8155 18.3925 14.0097C18.5783 14.384 18.789 14.8082 18.6082 15.1827C18.4248 15.5625 17.9572 15.6627 17.5443 15.7508C17.3355 15.7957 17.02 15.8632 16.9518 15.9483C16.8827 16.0352 16.8867 16.3593 16.8893 16.5738C16.8947 16.9942 16.9005 17.4708 16.5728 17.7327C16.2463 17.9933 15.784 17.8822 15.3763 17.7843C15.1665 17.734 14.8502 17.6575 14.7483 17.707C14.652 17.7533 14.5168 18.0438 14.4273 18.236C14.2485 18.6205 14.0458 19.056 13.6315 19.1502C13.5793 19.162 13.528 19.1675 13.4775 19.1675C13.1393 19.1675 12.8372 18.9203 12.5437 18.6803C12.3643 18.5335 12.1185 18.3325 11.9998 18.3325C11.8813 18.3325 11.6355 18.5335 11.4562 18.6803C11.1347 18.9432 10.77 19.242 10.3685 19.15C9.95417 19.0558 9.75134 18.6202 9.57234 18.236C9.483 18.0438 9.34767 17.7533 9.2515 17.7068C9.1495 17.657 8.83284 17.7338 8.62334 17.7842C8.2155 17.8823 7.7535 17.993 7.42683 17.7325C7.099 17.4707 7.10483 16.9938 7.11033 16.5733C7.113 16.3588 7.117 16.0348 7.048 15.9482C6.97983 15.8628 6.66433 15.7953 6.4555 15.7507C6.0425 15.6623 5.57483 15.5622 5.3915 15.1822C5.21083 14.808 5.42167 14.3837 5.60733 14.0093C5.70383 13.8153 5.8495 13.5218 5.824 13.4093C5.801 13.3085 5.55 13.1137 5.384 12.9847C5.04783 12.724 4.66667 12.428 4.66667 12C4.66667 11.572 5.04783 11.2762 5.38417 11.0152C5.55017 10.8863 5.80117 10.6915 5.82417 10.5905C5.84967 10.478 5.704 10.1845 5.60767 9.99033C5.42183 9.616 5.21117 9.19183 5.392 8.81733C5.57533 8.4375 6.043 8.33733 6.45583 8.249C6.66467 8.20433 6.98017 8.13683 7.04817 8.05167C7.1175 7.96483 7.1135 7.64067 7.11083 7.42617C7.1055 7.00567 7.09967 6.529 7.42733 6.26717C7.75383 6.0065 8.21617 6.1175 8.62384 6.2155C8.83367 6.26583 9.15 6.342 9.25184 6.293C9.34817 6.2465 9.48334 5.95617 9.57284 5.76383C9.75167 5.3795 9.95434 4.944 10.3687 4.84983C10.7697 4.75883 11.135 5.0565 11.4563 5.3195C11.6358 5.46633 11.8817 5.66733 12.0002 5.66733C12.1187 5.66733 12.3645 5.46633 12.5438 5.31967C12.8655 5.0565 13.23 4.75817 13.6317 4.84983C14.0458 4.944 14.2487 5.37967 14.4277 5.764C14.5172 5.95617 14.6523 6.24667 14.7487 6.29317C14.8508 6.34233 15.167 6.266 15.3765 6.21567C15.7843 6.11767 16.2465 6.00667 16.5732 6.26733C16.901 6.52917 16.8952 7.00583 16.8897 7.4265C16.887 7.641 16.883 7.96517 16.952 8.05167C17.0202 8.13683 17.3357 8.2045 17.5445 8.24917C17.9575 8.3375 18.4252 8.4375 18.6085 8.8175C18.7892 9.19183 18.5783 9.61617 18.3927 9.9905C18.2962 10.1847 18.1505 10.478 18.176 10.5905C18.199 10.6915 18.45 10.8863 18.616 11.0152C18.9522 11.2762 19.3333 11.572 19.3333 12C19.3333 12.428 18.9522 12.7238 18.6158 12.9848C18.4498 13.1138 18.1988 13.3085 18.176 13.4097V13.4097ZM10.3333 11.5C10.9765 11.5 11.5 10.9767 11.5 10.3333C11.5 9.69 10.9765 9.16667 10.3333 9.16667C9.69017 9.16667 9.16667 9.69 9.16667 10.3333C9.16667 10.9767 9.69017 11.5 10.3333 11.5ZM14.569 9.90233C14.6992 9.77217 14.6992 9.56116 14.569 9.431C14.4388 9.30083 14.2278 9.30083 14.0977 9.431L9.431 14.0977C9.30084 14.2278 9.30084 14.4388 9.431 14.569C9.49617 14.6342 9.58134 14.6667 9.66667 14.6667C9.752 14.6667 9.83717 14.6342 9.90234 14.569L14.569 9.90233ZM14.8333 13.6667C14.8333 13.0235 14.3098 12.5 13.6667 12.5C13.0235 12.5 12.5 13.0235 12.5 13.6667C12.5 14.3098 13.0235 14.8333 13.6667 14.8333C14.3098 14.8333 14.8333 14.3098 14.8333 13.6667Z" fill="#00B74F"/>
</svg>
