<svg width="24" height="24" viewBox="0 0 24 24" fill="none" xmlns="http://www.w3.org/2000/svg">
<path d="M3.74707 4.50171C2.51354 4.50171 1.5 5.51519 1.5 6.74872V17.2458C1.5 18.4794 2.51354 19.5002 3.74707 19.5002H20.2456C21.4791 19.5002 22.4985 18.4794 22.4985 17.2458V6.74872C22.4985 5.51519 21.4791 4.50171 20.2456 4.50171H3.74707ZM3.74707 5.99585H20.2456C20.6741 5.99585 20.9985 6.32023 20.9985 6.74872V8.99728H3V6.74872C3 6.32023 3.3186 5.99585 3.74707 5.99585ZM3 10.4973H20.9985V17.2458C20.9985 17.6743 20.6741 17.9987 20.2456 17.9987H3.74707C3.3186 17.9987 3 17.6743 3 17.2458V10.4973ZM15.6724 14.2517C15.4766 14.2655 15.294 14.3553 15.1636 14.502C15.0332 14.6488 14.9655 14.8407 14.9749 15.0367C14.9843 15.2328 15.07 15.4174 15.2138 15.551C15.3576 15.6846 15.5479 15.7567 15.7441 15.7517H18.7456C18.8455 15.7539 18.9448 15.7362 19.0378 15.6995C19.1307 15.6628 19.2154 15.6078 19.2868 15.5379C19.3582 15.4681 19.415 15.3847 19.4537 15.2926C19.4925 15.2005 19.5124 15.1016 19.5124 15.0017C19.5124 14.9018 19.4925 14.8029 19.4537 14.7108C19.415 14.6187 19.3582 14.5352 19.2868 14.4654C19.2154 14.3955 19.1307 14.3406 19.0378 14.3039C18.9448 14.2672 18.8455 14.2495 18.7456 14.2517H15.7441C15.7202 14.2505 15.6963 14.2505 15.6724 14.2517Z" fill="black"/>
<line x1="15" y1="15" x2="19" y2="15" stroke="#00B74F" stroke-width="2" stroke-linecap="round"/>
</svg>
