<svg width="16" height="16" viewBox="0 0 16 16" fill="none" xmlns="http://www.w3.org/2000/svg">
<path fill-rule="evenodd" clip-rule="evenodd" d="M6.67673 7.19552C7.03867 7.4799 7.25 7.91471 7.25 8.375V13.3821L8.75 12.8543V8.375C8.75 7.91471 8.96133 7.4799 9.32327 7.19552L13.7134 3.74616C13.8943 3.60397 14 3.38657 14 3.15642V2H2V3.15642C2 3.38657 2.10567 3.60397 2.28663 3.74616L6.67673 7.19552ZM14.6401 4.92564L10.25 8.375V13.3855C10.25 13.7037 10.0491 13.9873 9.74893 14.093L6.74893 15.1485C6.26109 15.3202 5.75 14.9582 5.75 14.441V8.375L1.3599 4.92564C0.816998 4.49907 0.5 3.84686 0.5 3.15642V2C0.5 1.17157 1.17157 0.5 2 0.5H14C14.8284 0.5 15.5 1.17157 15.5 2V3.15642C15.5 3.84686 15.183 4.49907 14.6401 4.92564Z" fill="#666666"/>
</svg>