<svg width="24" height="24" viewBox="0 0 24 24" fill="none" xmlns="http://www.w3.org/2000/svg">
<path fill-rule="evenodd" clip-rule="evenodd" d="M8.1094 10.3359C8.6658 10.7068 9 11.3313 9 12V19C9 19.5523 9.44772 20 10 20H14C14.5523 20 15 19.5523 15 19V12C15 11.3313 15.3342 10.7068 15.8906 10.3359L17.5547 9.2265C17.8329 9.04103 18 8.7288 18 8.39445V8H6V8.39445C6 8.7288 6.1671 9.04103 6.4453 9.2265L8.1094 10.3359ZM7 12L5.3359 10.8906C4.5013 10.3342 4 9.39751 4 8.39445V7C4 6.44772 4.44772 6 5 6H19C19.5523 6 20 6.44772 20 7V8.39445C20 9.39751 19.4987 10.3342 18.6641 10.8906L17 12V19C17 20.6569 15.6569 22 14 22H10C8.34315 22 7 20.6569 7 19V12Z" fill="#666667"/>
<path fill-rule="evenodd" clip-rule="evenodd" d="M12 13C12.5523 13 13 13.4477 13 14V16C13 16.5523 12.5523 17 12 17C11.4477 17 11 16.5523 11 16V14C11 13.4477 11.4477 13 12 13Z" fill="#00B74F"/>
<path fill-rule="evenodd" clip-rule="evenodd" d="M12 1C12.5523 1 13 1.44772 13 2V3C13 3.55228 12.5523 4 12 4C11.4477 4 11 3.55228 11 3V2C11 1.44772 11.4477 1 12 1Z" fill="#00B74F"/>
<path fill-rule="evenodd" clip-rule="evenodd" d="M7.05301 2.10579C7.54698 1.8588 8.14766 2.05903 8.39465 2.55301L8.89465 3.55301C9.14164 4.04698 8.94141 4.64766 8.44743 4.89465C7.95345 5.14164 7.35278 4.94141 7.10579 4.44743L6.60579 3.44743C6.3588 2.95345 6.55903 2.35278 7.05301 2.10579Z" fill="#00B74F"/>
<path fill-rule="evenodd" clip-rule="evenodd" d="M16.9474 2.10579C17.4414 2.35278 17.6416 2.95345 17.3946 3.44743L16.8946 4.44743C16.6477 4.94141 16.047 5.14164 15.553 4.89465C15.059 4.64766 14.8588 4.04698 15.1058 3.55301L15.6058 2.55301C15.8528 2.05903 16.4535 1.8588 16.9474 2.10579Z" fill="#00B74F"/>
</svg>
