<svg width="24" height="24" viewBox="0 0 24 24" fill="none" xmlns="http://www.w3.org/2000/svg">
<g clip-path="url(#clip0_5535_11516)">
<path d="M18.9512 18.2852C18.4802 17.3033 16.7951 15.9402 15.1672 14.6232C14.2592 13.8892 13.4012 13.1952 12.8542 12.6482C12.7172 12.5102 12.5122 12.4662 12.3312 12.5312C11.9942 12.6532 11.7862 12.7472 11.6222 12.8202C11.3722 12.9322 11.2882 12.9702 10.9512 13.0042C10.8022 13.0192 10.6682 13.0992 10.5852 13.2232C9.87818 14.2802 9.14618 14.1902 8.65718 14.0262C8.50117 13.9742 8.47319 13.9072 8.45819 13.8432C8.35319 13.4042 8.88021 12.3822 9.56318 11.6992C11.1882 10.0732 12.0262 9.66618 13.7962 10.4572C15.8042 11.3552 17.8162 12.0582 17.8362 12.0652C18.0992 12.1562 18.3822 12.0182 18.4732 11.7572C18.5632 11.4962 18.4262 11.2112 18.1652 11.1202C18.1451 11.1132 16.1732 10.4242 14.2052 9.54318C11.9122 8.51817 10.6541 9.19317 8.85714 10.9912C8.17314 11.6752 7.24413 13.0592 7.48413 14.0742C7.58711 14.5062 7.89114 14.8262 8.34311 14.9752C9.47613 15.3492 10.5101 14.9912 11.2801 13.9692C11.5981 13.9202 11.7711 13.8482 12.0311 13.7312C12.1251 13.6892 12.2351 13.6402 12.3811 13.5812C12.9531 14.1182 13.7251 14.7432 14.5381 15.4002C16.0081 16.5892 17.6751 17.9372 18.0501 18.7172C18.2351 19.1022 18.0361 19.3532 17.9011 19.4682C17.7031 19.6382 17.4321 19.6922 17.2851 19.5892C17.1231 19.4782 16.9121 19.4712 16.7451 19.5712C16.5771 19.6712 16.4831 19.8602 16.5041 20.0542C16.5381 20.3722 16.2471 20.5542 16.1211 20.6172C15.8011 20.7792 15.4671 20.7512 15.3421 20.6352C15.2021 20.5052 15.0011 20.4672 14.8231 20.5332C14.6451 20.6002 14.5211 20.7642 14.5031 20.9542C14.4731 21.2822 14.2301 21.5972 13.9131 21.7202C13.7601 21.7782 13.5381 21.8132 13.3391 21.6312C13.2151 21.5192 13.0431 21.4762 12.8821 21.5152C12.7191 21.5551 12.5881 21.6732 12.5311 21.8302C12.5121 21.8802 12.4691 22.0002 12.0011 22.0002C11.6681 22.0002 11.0691 21.7752 10.7761 21.5812C10.4251 21.3502 8.2241 19.7082 6.32313 18.1162C6.05613 17.8912 5.59413 17.4091 5.18613 16.9831C4.82411 16.6051 4.49313 16.2622 4.32311 16.1182C4.11011 15.9382 3.79511 15.9652 3.61811 16.1772C3.44013 16.3882 3.46609 16.7042 3.67713 16.8822C3.83214 17.0132 4.13214 17.3302 4.46313 17.6752C4.90914 18.1411 5.37011 18.6232 5.68014 18.8832C7.54216 20.4422 9.78016 22.1252 10.2261 22.4182C10.5941 22.6602 11.3871 23.0002 12.0011 23.0002C12.4941 23.0002 12.8732 22.8871 13.1361 22.6662C13.4881 22.8032 13.8881 22.8042 14.2731 22.6542C14.7281 22.4782 15.1021 22.1232 15.3141 21.6932C15.7081 21.7772 16.1591 21.7182 16.5691 21.5122C16.9701 21.3102 17.2601 21.0012 17.4041 20.6402C17.8021 20.6612 18.2121 20.5202 18.5511 20.2292C19.1252 19.7382 19.2831 18.9743 18.9512 18.2852Z" fill="#666667" stroke="#666667" stroke-width="0.5"/>
<path d="M10 10H5.50002C5.22402 10 5 10.224 5 10.5C5 10.776 5.22402 11 5.50002 11H10C10.276 11 10.5 10.776 10.5 10.5C10.5 10.224 10.276 10 10 10Z" fill="#666667" stroke="#666667" stroke-width="0.5"/>
<path d="M20.4161 17.2199C20.261 16.991 19.9511 16.928 19.7221 17.084L18.2601 18.0659C18.0311 18.2199 17.9701 18.5309 18.1241 18.7599C18.2211 18.9029 18.3791 18.9809 18.5401 18.9809C18.6351 18.9809 18.7321 18.9539 18.8181 18.8959L20.2801 17.914C20.5091 17.7599 20.57 17.449 20.4161 17.2199Z" fill="#666667" stroke="#666667" stroke-width="0.5"/>
<path d="M17.3103 19.6076C16.9523 19.3256 15.3513 17.6866 14.3613 16.6546C14.1702 16.4546 13.8533 16.4476 13.6542 16.6396C13.4542 16.8306 13.4482 17.1476 13.6392 17.3466C13.8963 17.6146 16.1632 19.9776 16.6902 20.3937C16.7812 20.4657 16.8912 20.5007 16.9992 20.5007C17.1462 20.5007 17.2932 20.4347 17.3932 20.3097C17.5643 20.0936 17.5273 19.7786 17.3103 19.6076Z" fill="#666667" stroke="#666667" stroke-width="0.5"/>
<path d="M15.3128 20.6097C14.7137 20.1306 13.2088 18.5317 12.8687 18.1617C12.6807 17.9577 12.3657 17.9457 12.1617 18.1317C11.9587 18.3187 11.9447 18.6357 12.1317 18.8387C12.1497 18.8577 13.9457 20.7967 14.6877 21.3907C14.7797 21.4637 14.8907 21.4997 14.9997 21.4997C15.1457 21.4997 15.2917 21.4347 15.3907 21.3127C15.5628 21.0966 15.5278 20.7816 15.3128 20.6097Z" fill="#666667" stroke="#666667" stroke-width="0.5"/>
<path d="M13.3225 21.616C12.6095 21.015 11.1505 19.462 10.8655 19.157C10.6765 18.955 10.3595 18.944 10.1585 19.133C9.95654 19.322 9.94651 19.6379 10.1345 19.84C10.5445 20.279 11.9405 21.759 12.6775 22.381C12.7715 22.46 12.8855 22.499 12.9995 22.499C13.1415 22.499 13.2835 22.438 13.3825 22.321C13.5605 22.109 13.5335 21.794 13.3225 21.616Z" fill="#666667" stroke="#666667" stroke-width="0.5"/>
<path d="M5.844 9.1367C4.98698 8.32468 1.56 8.06166 0.530016 8.00068C0.388031 7.9937 0.257016 8.04066 0.157031 8.13568C0.057 8.22966 0 8.36166 0 8.49966V17.4997C0 17.7757 0.224016 17.9997 0.500016 17.9997H3.50002C3.71602 17.9997 3.90802 17.8607 3.975 17.6547C4.04798 17.4307 5.77102 12.1427 5.99798 9.54268C6.01102 9.39066 5.955 9.24066 5.844 9.1367ZM3.135 16.9997H0.999984V9.03568C2.607 9.16266 4.341 9.43866 4.971 9.74466C4.70602 11.9347 3.507 15.8257 3.135 16.9997Z" fill="#666667" stroke="#666667" stroke-width="0.5"/>
<path d="M23.5017 9C19.5757 9 17.3977 10.005 17.3067 10.047C17.1767 10.108 17.0797 10.221 17.0397 10.358C16.9997 10.495 17.0197 10.642 17.0947 10.764C17.7127 11.759 19.6477 17.285 20.0197 18.633C20.0797 18.85 20.2767 19 20.5017 19H23.5017C23.7777 19 24.0017 18.776 24.0017 18.5V9.49997C24.0017 9.22298 23.7777 9 23.5017 9ZM23.0018 18H20.8757C20.4017 16.456 19.0017 12.43 18.2207 10.766C18.9837 10.507 20.6228 10.062 23.0018 10.006V18Z" fill="#666667" stroke="#666667" stroke-width="0.5"/>
<path d="M14.0209 5.31942L14.4218 5.61828L14.0209 5.31943C13.8896 5.49548 13.82 5.70985 13.8227 5.92944L13.8425 7.53596L12.3207 7.0207C12.1127 6.95028 11.8873 6.95028 11.6793 7.0207L10.1575 7.53596L10.1773 5.92944C10.18 5.70985 10.1104 5.49548 9.97909 5.31942L9.0188 4.03135L10.5528 3.55372L10.4042 3.07633L10.5528 3.55372C10.7625 3.48844 10.9448 3.35595 11.0717 3.17671L12 1.86538L12.9283 3.17671C13.0552 3.35595 13.2375 3.48844 13.4472 3.55372L14.9812 4.03135L14.0209 5.31942Z" stroke="#00B74F"/>
</g>
<defs>
<clipPath id="clip0_5535_11516">
<rect width="24" height="24" fill="white"/>
</clipPath>
</defs>
</svg>
