<svg width="24" height="24" viewBox="0 0 24 24" fill="none" xmlns="http://www.w3.org/2000/svg">
<path d="M10.2813 1.17266C7.26922 1.78117 4.82693 4.11981 4.18429 7.05002C3.64165 9.52436 4.31034 12.0085 6.01887 13.8655C6.85405 14.7731 7.33299 15.9713 7.33299 17.156V18.4452C7.33299 19.3028 7.91377 20.0315 8.71494 20.2839C8.97842 21.7889 10.3296 23 11.9998 23C13.6696 23 15.0211 21.7893 15.2846 20.2839C16.0858 20.0315 16.6666 19.3028 16.6666 18.4451V17.156C16.6666 15.9689 17.1471 14.7852 18.0196 13.8228C19.2967 12.4142 20 10.6069 20 8.73378C20 3.85382 15.3799 0.142829 10.2813 1.17266ZM11.9998 21.7109C11.1428 21.7109 10.3914 21.1408 10.1139 20.3745H13.8856C13.6082 21.1408 12.8568 21.7109 11.9998 21.7109ZM15.3332 18.4452C15.3332 18.8006 15.0341 19.0897 14.6665 19.0897H9.33305C8.96544 19.0897 8.66636 18.8006 8.66636 18.4452V17.8006H15.3332V18.4452ZM17.0169 12.9731C16.0871 13.9987 15.515 15.2354 15.3699 16.5115H8.62983C8.48485 15.2347 7.91425 13.9859 7.01521 13.0087C5.59126 11.461 5.03484 9.38664 5.48868 7.31743C6.01843 4.90187 8.05404 2.93962 10.5541 2.43458C14.8219 1.57229 18.6666 4.67099 18.6666 8.73378C18.6666 10.2941 18.0807 11.7997 17.0169 12.9731Z" fill="#666667" stroke="#666667" stroke-width="0.3"/>
<path d="M11.7443 5.15107L10.0301 8.42367C10.0084 8.46525 9.99809 8.51146 10.0003 8.55791C10.0025 8.60435 10.0171 8.64949 10.0427 8.68903C10.0683 8.72857 10.1041 8.7612 10.1467 8.78382C10.1892 8.80644 10.2371 8.81831 10.2858 8.81829H11.7143V10.7273C11.7143 10.7887 11.736 10.8483 11.776 10.8965C11.8159 10.9446 11.8717 10.9785 11.9343 10.9927C11.997 11.0068 12.0628 11.0004 12.1211 10.9743C12.1795 10.9483 12.2269 10.9042 12.2557 10.8492L13.9699 7.57661C13.9916 7.53502 14.0019 7.48881 13.9997 7.44237C13.9975 7.39592 13.9829 7.35079 13.9573 7.31125C13.9317 7.27171 13.8959 7.23908 13.8533 7.21645C13.8108 7.19383 13.7629 7.18197 13.7142 7.18199H12.2857V5.27297C12.2858 5.21149 12.264 5.15178 12.2241 5.10355C12.1841 5.05533 12.1283 5.0214 12.0656 5.00728C12.0029 4.99317 11.937 4.99969 11.8787 5.02579C11.8204 5.05189 11.773 5.09604 11.7443 5.15107ZM13.2519 7.72742L12.2857 9.57208V8.54557C12.2857 8.47324 12.2556 8.40387 12.202 8.35273C12.1484 8.30159 12.0758 8.27285 12 8.27285H10.7481L11.7143 6.4282V7.4547C11.7143 7.52703 11.7444 7.5964 11.798 7.64754C11.8516 7.69869 11.9242 7.72742 12 7.72742H13.2519Z" fill="#00B74F"/>
</svg>
