<svg width="24" height="24" viewBox="0 0 24 24" fill="none" xmlns="http://www.w3.org/2000/svg">
<path fill-rule="evenodd" clip-rule="evenodd" d="M11.6838 3.71343L5.68377 5.71343C5.27543 5.84954 5 6.23168 5 6.66211V11.9998C5 14.0255 6.01463 15.7552 7.48432 17.2095C8.95718 18.6669 10.7303 19.6838 11.8268 20.2264C11.9405 20.2826 12.0595 20.2826 12.1731 20.2264C13.2697 19.6838 15.0428 18.6669 16.5157 17.2095C17.9854 15.7552 19 14.0255 19 11.9998V6.66211C19 6.23168 18.7246 5.84954 18.3162 5.71343L12.3162 3.71343C12.111 3.645 11.889 3.645 11.6838 3.71343ZM5.05132 3.81606C3.82629 4.2244 3 5.37082 3 6.66211V11.9998C3 17.5018 8.56019 20.8416 10.9399 22.019C11.6125 22.3518 12.3875 22.3518 13.0601 22.019C15.4398 20.8416 21 17.5018 21 11.9998V6.66211C21 5.37082 20.1737 4.2244 18.9487 3.81606L12.9487 1.81606C12.3329 1.61079 11.6671 1.61079 11.0513 1.81606L5.05132 3.81606Z" fill="#666667"/>
<path fill-rule="evenodd" clip-rule="evenodd" d="M15.7071 9.29289C16.0976 9.68342 16.0976 10.3166 15.7071 10.7071L12.2728 14.1414C11.5698 14.8444 10.4302 14.8444 9.72721 14.1414L8.29289 12.7071C7.90237 12.3166 7.90237 11.6834 8.29289 11.2929C8.68342 10.9024 9.31658 10.9024 9.70711 11.2929L11 12.5858L14.2929 9.29289C14.6834 8.90237 15.3166 8.90237 15.7071 9.29289Z" fill="#00B74F"/>
</svg>
