<svg width="24" height="24" fill="none" xmlns="http://www.w3.org/2000/svg">
    <path fill-rule="evenodd" clip-rule="evenodd" d="M12 14a2 2 0 1 0 0-4 2 2 0 0 0 0 4zm4-2a4 4 0 1 1-8 0 4 4 0 0 1 8 0z" fill="#00B74F"/>
    <path fill-rule="evenodd" clip-rule="evenodd" d="m11.379 3-.388 1.163C10.616 5.288 9.8 6.07 8.965 6.534c-.06.033-.118.067-.176.102-.82.493-1.908.81-3.071.572l-1.202-.246.401-1.96 1.202.247c.565.115 1.146-.03 1.64-.327a8.21 8.21 0 0 1 .233-.135c.504-.28.92-.71 1.102-1.257l.387-1.162A2 2 0 0 1 11.38 1h1.242a2 2 0 0 1 1.897 1.368l.388 1.162c.182.547.598.977 1.101 1.257.079.044.156.089.233.135.495.297 1.076.442 1.64.327l1.203-.246a2 2 0 0 1 2.133.96l.62 1.075a2 2 0 0 1-.235 2.327l-.815.919c-.382.43-.547 1.005-.538 1.58.002.09.002.181 0 .272-.01.575.156 1.15.538 1.58l.815.92a2 2 0 0 1 .236 2.326l-.621 1.076a2 2 0 0 1-2.134.96l-1.201-.247c-.565-.115-1.146.03-1.641.327-.077.046-.154.091-.233.135-.503.28-.92.71-1.101 1.257l-.388 1.163A2 2 0 0 1 12.621 23h-1.242a2 2 0 0 1-1.898-1.367l-.387-1.163c-.182-.547-.598-.977-1.102-1.257a8.377 8.377 0 0 1-.232-.135c-.495-.297-1.076-.442-1.641-.327l-1.202.246a2 2 0 0 1-2.133-.96l-.621-1.075a2 2 0 0 1 .236-2.327l1.496 1.327.621 1.076 1.202-.246c1.163-.238 2.251.08 3.07.572.06.034.118.069.177.101.834.465 1.651 1.247 2.026 2.372L11.38 21h1.242l.387-1.163c.375-1.125 1.193-1.907 2.027-2.372.059-.032.117-.067.176-.101.82-.493 1.908-.81 3.07-.572l1.203.246.62-1.076-.814-.919c-.785-.885-1.057-1.982-1.042-2.94v-.207c-.015-.957.257-2.054 1.041-2.94l.816-.918-.622-1.076-1.201.246c-1.163.238-2.251-.08-3.071-.572a6.24 6.24 0 0 0-.177-.102c-.833-.464-1.65-1.246-2.026-2.371L12.621 3h-1.242zm-8.98 11.635 1.496 1.327.815-.919c.785-.885 1.056-1.982 1.041-2.94a6.603 6.603 0 0 1 0-.207c.015-.957-.256-2.054-1.04-2.94l-.816-.918.621-1.076.401-1.96a2 2 0 0 0-2.133.96l-.621 1.076a2 2 0 0 0 .236 2.327l.815.919c.382.43.547 1.005.538 1.58-.002.09-.002.181 0 .271.009.576-.156 1.15-.538 1.581l-.815.92z" fill="#666667"/>
</svg>
