<svg width="24" height="24" viewBox="0 0 24 24" fill="none" xmlns="http://www.w3.org/2000/svg">
<g clip-path="url(#clip0_5974_12525)">
<path d="M11.8953 23.9985C11.7643 23.9985 11.6363 23.9465 11.5413 23.8525C11.4233 23.7345 11.3713 23.5645 11.4043 23.4015L12.1113 19.8665C12.1313 19.7685 12.1773 19.6795 12.2483 19.6105L20.0263 11.8325C20.6103 11.2485 21.5633 11.2485 22.1473 11.8325L23.5613 13.2465C24.1463 13.8315 24.1463 14.7825 23.5613 15.3675L15.7833 23.1455C15.7143 23.2155 15.6253 23.2625 15.5273 23.2825L11.9923 23.9895C11.9603 23.9955 11.9273 23.9985 11.8953 23.9985ZM13.0633 20.2095L12.5333 22.8605L15.1843 22.3305L22.8553 14.6595C23.0503 14.4645 23.0503 14.1475 22.8553 13.9525L21.4413 12.5385C21.2463 12.3435 20.9293 12.3435 20.7343 12.5385L13.0633 20.2095ZM15.4303 22.7915H15.4403H15.4303Z" fill="#00B74F" stroke="#00B74F" stroke-width="0.5"/>
<path d="M8.6 21H3C1.8968 21 1 19.879 1 18.5V5.5C1 4.121 1.8968 3 3 3H4.6C4.8208 3 5 3.224 5 3.5C5 3.776 4.8208 4 4.6 4H3C2.3384 4 1.8 4.673 1.8 5.5V18.5C1.8 19.327 2.3384 20 3 20H8.6C8.8208 20 9 20.224 9 20.5C9 20.776 8.8208 21 8.6 21Z" fill="#666667" stroke="#666667" stroke-width="0.5"/>
<path d="M17.6 12C17.3792 12 17.2 11.776 17.2 11.5V5.5C17.2 4.673 16.6616 4 16 4H14.4C14.1792 4 14 3.776 14 3.5C14 3.224 14.1792 3 14.4 3H16C17.1032 3 18 4.121 18 5.5V11.5C18 11.776 17.8208 12 17.6 12Z" fill="#666667" stroke="#666667" stroke-width="0.5"/>
<path d="M12.5 6H6.5C5.673 6 5 5.327 5 4.5V2.5C5 2.224 5.224 2 5.5 2H7.05C7.282 0.86 8.293 0 9.50001 0C10.707 0 11.718 0.86 11.95 2H13.5C13.776 2 14 2.224 14 2.5V4.5C14 5.327 13.327 6 12.5 6ZM6 3V4.5C6 4.775 6.225 5 6.5 5H12.5C12.775 5 13 4.775 13 4.5V3H11.5C11.224 3 11 2.776 11 2.5C11 1.673 10.327 1 9.50001 1C8.67301 1 8 1.673 8 2.5C8 2.776 7.776 3 7.5 3H6Z" fill="#666667" stroke="#666667" stroke-width="0.5"/>
<path d="M14.5 10H4.5C4.224 10 4 9.776 4 9.5C4 9.224 4.224 9 4.5 9H14.5C14.776 9 15 9.224 15 9.5C15 9.776 14.776 10 14.5 10Z" fill="#666667" stroke="#666667" stroke-width="0.5"/>
<path d="M12.5909 13H4.40909C4.18327 13 4 12.776 4 12.5C4 12.224 4.18327 12 4.40909 12H12.5909C12.8167 12 13 12.224 13 12.5C13 12.776 12.8167 13 12.5909 13Z" fill="#666667" stroke="#666667" stroke-width="0.5"/>
<path d="M10.6818 16H4.31818C4.14255 16 4 15.776 4 15.5C4 15.224 4.14255 15 4.31818 15H10.6818C10.8575 15 11 15.224 11 15.5C11 15.776 10.8575 16 10.6818 16Z" fill="#666667" stroke="#666667" stroke-width="0.5"/>
</g>
<defs>
<clipPath id="clip0_5974_12525">
<rect width="24" height="24" fill="white"/>
</clipPath>
</defs>
</svg>
