<svg width="24" height="24" viewBox="0 0 24 24" fill="none" xmlns="http://www.w3.org/2000/svg">
<path d="M10.7891 18.584H4.95573C4.84522 18.584 4.73924 18.6279 4.6611 18.706C4.58296 18.7842 4.53906 18.8902 4.53906 19.0007C4.53906 19.1112 4.58296 19.2172 4.6611 19.2953C4.73924 19.3734 4.84522 19.4173 4.95573 19.4173H10.7891C10.8996 19.4173 11.0056 19.3734 11.0837 19.2953C11.1618 19.2172 11.2057 19.1112 11.2057 19.0007C11.2057 18.8902 11.1618 18.7842 11.0837 18.706C11.0056 18.6279 10.8996 18.584 10.7891 18.584Z" fill="#666667"/>
<path d="M10.7891 16.5H4.95573C4.84522 16.5 4.73924 16.5439 4.6611 16.622C4.58296 16.7002 4.53906 16.8062 4.53906 16.9167C4.53906 17.0272 4.58296 17.1332 4.6611 17.2113C4.73924 17.2895 4.84522 17.3333 4.95573 17.3333H10.7891C10.8996 17.3333 11.0056 17.2895 11.0837 17.2113C11.1618 17.1332 11.2057 17.0272 11.2057 16.9167C11.2057 16.8062 11.1618 16.7002 11.0837 16.622C11.0056 16.5439 10.8996 16.5 10.7891 16.5Z" fill="#666667"/>
<path d="M4.95573 15.2494H8.28907C8.39958 15.2494 8.50556 15.2055 8.5837 15.1273C8.66184 15.0492 8.70574 14.9432 8.70574 14.8327C8.70574 14.7222 8.66184 14.6162 8.5837 14.5381C8.50556 14.4599 8.39958 14.416 8.28907 14.416H4.95573C4.84522 14.416 4.73924 14.4599 4.6611 14.5381C4.58296 14.6162 4.53906 14.7222 4.53906 14.8327C4.53906 14.9432 4.58296 15.0492 4.6611 15.1273C4.73924 15.2055 4.84522 15.2494 4.95573 15.2494Z" fill="#666667"/>
<path d="M20.7904 16.1667C20.7904 15.1337 20.4067 14.1376 19.7138 13.3715C19.0209 12.6055 18.0681 12.1241 17.0404 12.0208V6.16667H19.957C20.0676 6.16667 20.1735 6.12277 20.2517 6.04463C20.3298 5.96649 20.3737 5.86051 20.3737 5.75V4.08333C20.3737 3.5308 20.1542 3.0009 19.7635 2.61019C19.3728 2.21949 18.8429 2 18.2904 2H4.54037C3.98783 2 3.45793 2.21949 3.06723 2.61019C2.67652 3.0009 2.45703 3.5308 2.45703 4.08333V21.5833C2.45703 21.6938 2.50093 21.7998 2.57907 21.878C2.65721 21.9561 2.76319 22 2.8737 22H16.6237C16.7342 22 16.8402 21.9561 16.9183 21.878C16.9965 21.7998 17.0404 21.6938 17.0404 21.5833V20.3333C18.0717 20.2297 19.0274 19.7454 19.7208 18.9749C20.4142 18.2044 20.7956 17.2032 20.7904 16.1667ZM19.5404 4.08333V5.33333H17.0404V4.08333C17.0404 3.75181 17.1721 3.43387 17.4065 3.19945C17.6409 2.96503 17.9589 2.83333 18.2904 2.83333C18.6219 2.83333 18.9398 2.96503 19.1743 3.19945C19.4087 3.43387 19.5404 3.75181 19.5404 4.08333ZM3.29037 21.1667V4.08333C3.29037 3.75181 3.42206 3.43387 3.65648 3.19945C3.8909 2.96503 4.20885 2.83333 4.54037 2.83333H16.6237C16.0529 3.5875 16.207 3.25 16.207 12.0208C15.1556 12.0953 14.1714 12.5656 13.4529 13.3368C12.7343 14.1081 12.3348 15.123 12.3348 16.1771C12.3348 17.2312 12.7343 18.2461 13.4529 19.0174C14.1714 19.7886 15.1556 20.2588 16.207 20.3333V21.1667H3.29037ZM16.6237 19.5C15.9644 19.5 15.32 19.3045 14.7718 18.9382C14.2236 18.572 13.7964 18.0514 13.5441 17.4423C13.2918 16.8332 13.2258 16.163 13.3544 15.5164C13.483 14.8698 13.8005 14.2758 14.2667 13.8096C14.7329 13.3435 15.3268 13.026 15.9734 12.8974C16.62 12.7688 17.2902 12.8348 17.8993 13.0871C18.5084 13.3394 19.029 13.7666 19.3953 14.3148C19.7616 14.8629 19.957 15.5074 19.957 16.1667C19.957 17.0507 19.6059 17.8986 18.9807 18.5237C18.3556 19.1488 17.5078 19.5 16.6237 19.5Z" fill="#666667" stroke="#666667" stroke-width="0.5"/>
<path d="M5.3737 6.58333H6.20703V9.50001C6.20703 9.61051 6.25093 9.7165 6.32907 9.79464C6.40721 9.87278 6.51319 9.91667 6.6237 9.91667C6.73421 9.91667 6.84019 9.87278 6.91833 9.79464C6.99647 9.7165 7.04037 9.61051 7.04037 9.50001V6.58333H7.8737C7.98421 6.58333 8.09019 6.53944 8.16833 6.4613C8.24647 6.38316 8.29037 6.27717 8.29037 6.16667C8.29037 6.05616 8.24647 5.95018 8.16833 5.87204C8.09019 5.7939 7.98421 5.75 7.8737 5.75H5.3737C5.26319 5.75 5.15721 5.7939 5.07907 5.87204C5.00093 5.95018 4.95703 6.05616 4.95703 6.16667C4.95703 6.27717 5.00093 6.38316 5.07907 6.4613C5.15721 6.53944 5.26319 6.58333 5.3737 6.58333Z" fill="#00B74F"/>
<path d="M10.3487 6.0206C10.3195 5.94017 10.2662 5.87067 10.1961 5.82155C10.1261 5.77244 10.0426 5.74609 9.957 5.74609C9.87143 5.74609 9.78794 5.77244 9.71786 5.82155C9.64779 5.87067 9.59453 5.94017 9.56534 6.0206L8.31533 9.35394C8.27665 9.45782 8.28083 9.5728 8.32693 9.6736C8.37303 9.7744 8.45729 9.85276 8.56117 9.89144C8.66504 9.93012 8.78003 9.92595 8.88083 9.87984C8.98163 9.83374 9.05999 9.74948 9.09867 9.64561L9.307 9.08311H10.607L10.8153 9.64561C10.854 9.74948 10.9324 9.83374 11.0332 9.87984C11.134 9.92595 11.249 9.93012 11.3528 9.89144C11.4567 9.85276 11.541 9.7744 11.5871 9.6736C11.6332 9.5728 11.6374 9.45782 11.5987 9.35394L10.3487 6.0206ZM9.6195 8.24977L9.957 7.35394L10.2945 8.24977H9.6195Z" fill="#00B74F"/>
<path d="M12.8284 9.68557L13.2909 8.76474L13.7534 9.68557C13.8076 9.77572 13.8939 9.84201 13.995 9.87113C14.0961 9.90026 14.2045 9.89006 14.2984 9.84259C14.3923 9.79512 14.4647 9.71389 14.5012 9.6152C14.5377 9.51652 14.5355 9.4077 14.495 9.31057L13.7575 7.8314L14.495 6.35223C14.5355 6.25511 14.5377 6.14629 14.5012 6.0476C14.4647 5.94892 14.3923 5.86769 14.2984 5.82022C14.2045 5.77275 14.0961 5.76255 13.995 5.79167C13.8939 5.8208 13.8076 5.88709 13.7534 5.97723L13.2909 6.89807L12.8284 5.97723C12.7741 5.88709 12.6878 5.8208 12.5867 5.79167C12.4856 5.76255 12.3772 5.77275 12.2833 5.82022C12.1895 5.86769 12.117 5.94892 12.0805 6.0476C12.0441 6.14629 12.0463 6.25511 12.0867 6.35223L12.8242 7.8314L12.0867 9.31057C12.0463 9.4077 12.0441 9.51652 12.0805 9.6152C12.117 9.71389 12.1895 9.79512 12.2833 9.84259C12.3772 9.89006 12.4856 9.90026 12.5867 9.87113C12.6878 9.84201 12.7741 9.77572 12.8284 9.68557Z" fill="#00B74F"/>
<path d="M15.3724 15.7507C15.8326 15.7507 16.2057 15.3776 16.2057 14.9173C16.2057 14.4571 15.8326 14.084 15.3724 14.084C14.9122 14.084 14.5391 14.4571 14.5391 14.9173C14.5391 15.3776 14.9122 15.7507 15.3724 15.7507Z" fill="#666667"/>
<path d="M17.8724 18.2507C18.3326 18.2507 18.7057 17.8776 18.7057 17.4173C18.7057 16.9571 18.3326 16.584 17.8724 16.584C17.4122 16.584 17.0391 16.9571 17.0391 17.4173C17.0391 17.8776 17.4122 18.2507 17.8724 18.2507Z" fill="#666667"/>
<path d="M17.6314 14.2438L14.9648 17.5771C14.9163 17.6384 14.8861 17.712 14.8775 17.7897C14.8689 17.8673 14.8824 17.9458 14.9162 18.0162C14.9501 18.0866 15.0031 18.146 15.0692 18.1877C15.1352 18.2294 15.2116 18.2517 15.2898 18.2521C15.5773 18.2521 15.4398 18.3188 18.2814 14.7646C18.3464 14.678 18.3752 14.5696 18.3617 14.4622C18.3481 14.3548 18.2933 14.2569 18.2088 14.1892C18.1243 14.1215 18.0168 14.0893 17.9091 14.0995C17.8013 14.1097 17.7017 14.1614 17.6314 14.2438Z" fill="#666667"/>
</svg>
