<svg width="20" height="20" viewBox="0 0 20 20" fill="none" xmlns="http://www.w3.org/2000/svg">
<path d="M12.0208 18.1438C11.8559 18.1849 11.6877 18.2214 11.5208 18.2522C11.0846 18.3333 10.7961 18.7529 10.8768 19.1896C10.9167 19.4044 11.0387 19.5834 11.2043 19.7002C11.375 19.8203 11.5923 19.8746 11.8137 19.8334C12.0125 19.7965 12.2128 19.7531 12.4093 19.7041C12.8402 19.5969 13.1026 19.1604 12.9952 18.7298C12.8879 18.2988 12.4519 18.0365 12.0208 18.1438Z" fill="#00B74F"/>
<path d="M17.9638 7.36709C18.0201 7.53683 18.1276 7.67539 18.2635 7.77114C18.4648 7.91297 18.7283 7.96069 18.9798 7.87754C19.4014 7.73756 19.6298 7.28296 19.4903 6.86159C19.4268 6.6695 19.3563 6.47681 19.2812 6.28919C19.1162 5.87689 18.6486 5.67616 18.2361 5.84108C17.824 6.00591 17.6232 6.47371 17.7882 6.88614C17.8513 7.04384 17.9104 7.2057 17.9638 7.36709Z" fill="#00B74F"/>
<path d="M14.631 16.9959C14.4892 17.0895 14.3428 17.1802 14.1954 17.2651C13.8106 17.487 13.6788 17.9788 13.9007 18.3634C13.9609 18.468 14.0411 18.5535 14.1335 18.6188C14.3815 18.7933 14.7184 18.8195 14.9988 18.6579C15.1742 18.5568 15.3485 18.4492 15.5174 18.3375C15.8877 18.0929 15.9897 17.594 15.7449 17.2235C15.5001 16.8529 15.0015 16.7511 14.631 16.9959Z" fill="#00B74F"/>
<path d="M19.9941 9.61267C19.9766 9.16891 19.6028 8.82351 19.1589 8.84083C18.7156 8.85833 18.3699 9.23224 18.3873 9.67583C18.394 9.84543 18.3957 10.0176 18.3918 10.187C18.3856 10.4653 18.5217 10.7134 18.7332 10.8625C18.8592 10.9512 19.0122 11.0049 19.178 11.0087C19.6217 11.0185 19.9895 10.6665 19.9993 10.2226C20.0038 10.0201 20.0021 9.815 19.9941 9.61267Z" fill="#00B74F"/>
<path d="M17.8363 14.8808C17.4805 14.6139 16.977 14.6863 16.7105 15.0415C16.6085 15.1776 16.501 15.3119 16.3909 15.4413C16.1033 15.7792 16.1439 16.2868 16.4818 16.5746C16.5011 16.5909 16.5206 16.6059 16.5408 16.62C16.8767 16.8569 17.3436 16.8025 17.6152 16.4837C17.7467 16.3294 17.8748 16.1689 17.9968 16.0064C18.2633 15.6512 18.1912 15.1474 17.8363 14.8808Z" fill="#00B74F"/>
<path d="M19.0175 11.9744C18.5938 11.8416 18.1426 12.0774 18.0098 12.5011C17.959 12.663 17.9027 12.8256 17.8419 12.9849C17.7084 13.3355 17.8363 13.7213 18.1295 13.9281C18.1833 13.9659 18.2426 13.9979 18.3069 14.0223C18.7218 14.1805 19.1863 13.9724 19.3444 13.5574C19.4166 13.368 19.4836 13.1745 19.5442 12.9821C19.6768 12.5583 19.4411 12.1073 19.0175 11.9744Z" fill="#00B74F"/>
<path d="M8.51241 18.2594C7.79358 18.1304 7.10402 17.9106 6.45016 17.6041C6.44242 17.6 6.4355 17.5954 6.42737 17.5917C6.27329 17.5192 6.11946 17.4415 5.97036 17.3603C5.96985 17.3597 5.9689 17.3593 5.96808 17.359C5.69452 17.2084 5.42754 17.0417 5.16817 16.8591C1.38605 14.1949 0.476682 8.95032 3.14108 5.16824C3.72045 4.34615 4.42157 3.66029 5.20321 3.1167C5.21284 3.10999 5.22247 3.10332 5.23201 3.09658C7.9864 1.19872 11.7264 1.07082 14.6511 3.02104L14.023 3.92865C13.8483 4.18127 13.9558 4.36536 14.2615 4.33785L16.9901 4.09357C17.2962 4.06605 17.4793 3.80126 17.3969 3.50565L16.6642 0.865664C16.5822 0.569705 16.3722 0.534279 16.1974 0.786859L15.5677 1.69662C13.4214 0.255819 10.8471 -0.29358 8.2919 0.149499C8.03455 0.194039 7.78081 0.248553 7.53055 0.312009C7.52862 0.312353 7.52707 0.312568 7.52552 0.312912C7.51585 0.315277 7.50604 0.318415 7.49663 0.321038C5.29328 0.886859 3.37088 2.17194 1.99912 4.00547C1.98756 4.01919 1.97565 4.0326 1.96473 4.04752C1.91912 4.10896 1.87384 4.17181 1.82952 4.23467C1.75703 4.33768 1.68558 4.44326 1.61722 4.54885C1.60867 4.56158 1.60213 4.57452 1.59465 4.58737C0.462666 6.3415 -0.0833353 8.36945 0.0103018 10.434C0.0105168 10.4408 0.0101299 10.4476 0.0103018 10.4546C0.0193732 10.6563 0.0353663 10.8608 0.0570774 11.0621C0.0582382 11.075 0.0611187 11.0873 0.0633113 11.1003C0.0857533 11.3027 0.113913 11.5056 0.14921 11.7084C0.507937 13.778 1.48421 15.6403 2.9471 17.0894C2.9505 17.0927 2.95402 17.0964 2.95746 17.1C2.95867 17.1013 2.96 17.102 2.96116 17.1032C3.3542 17.4909 3.78171 17.8495 4.24203 18.1737C5.44667 19.0225 6.78807 19.5836 8.22866 19.8421C8.66576 19.9207 9.0833 19.6297 9.16172 19.1928C9.2401 18.7556 8.94938 18.3377 8.51241 18.2594Z" fill="black"/>
<path d="M9.50624 3.50433C9.1467 3.50433 8.85547 3.79582 8.85547 4.15485V10.6358L14.7828 13.6999C14.8782 13.7493 14.9803 13.7726 15.0809 13.7726C15.3163 13.7726 15.5437 13.6444 15.6593 13.4207C15.8242 13.1014 15.6994 12.7092 15.3801 12.5443L10.1563 9.84363V4.15485C10.1562 3.79582 9.86535 3.50433 9.50624 3.50433Z" fill="black"/>
</svg>
