<svg width="21" height="19" viewBox="0 0 21 19" fill="none" xmlns="http://www.w3.org/2000/svg">
<path d="M11.1303 1C8.13202 1 5.47834 2.44658 3.87207 4.6541C4.2045 4.86369 4.52854 5.15112 4.84194 5.52062C6.04026 3.78893 7.97783 2.57398 10.2196 2.3128L11.1302 3.80201L12.0408 2.31277C15.4868 2.71414 18.2259 5.36125 18.6414 8.69162L17.1002 9.57178L18.6414 10.452C18.3637 12.6786 17.0442 14.5955 15.1724 15.7444C15.2916 16.0071 15.3588 16.2757 15.3706 16.5526C15.3794 16.755 15.3578 16.9462 15.3144 17.1277C18.1007 15.6808 19.9998 12.8371 19.9998 9.57193C19.9998 4.84524 16.0211 1 11.1303 1Z" fill="#069E4E" stroke="#069E4E"/>
<path d="M3.43279 13.0958V12.1305H1.52407L2.51835 11.1363C3.07717 10.5774 3.35296 10.0404 3.35296 9.51058C3.35296 9.02433 3.18603 8.63243 2.85945 8.34939C2.53286 8.05909 2.1337 7.91394 1.67648 7.91394C0.957987 7.91394 0.319329 8.29133 0 8.98804L0.841868 9.48155C1.0233 9.08239 1.30635 8.88644 1.69099 8.88644C2.07564 8.88644 2.35142 9.14771 2.35142 9.54687C2.35142 9.8154 2.15547 10.1565 1.77082 10.5629L0.0362874 12.3483V13.0958H3.43279Z" fill="#666667"/>
<path d="M7.16716 11.3032V10.0984H6.15837V11.3032H4.83751L6.52124 8.01554H5.44713L3.75614 11.3032V12.2321H6.15837V13.0958H7.16716V12.2321H7.71147V11.3032H7.16716Z" fill="#666667"/>
<path d="M11.3698 7.28979H10.9561L8.05314 13.8215H8.46681L11.3698 7.28979Z" fill="#666667"/>
<path d="M11.7068 8.97353H13.8768L12.2076 13.0958H13.2672L14.9872 8.86467V8.01554H11.7068V8.97353Z" fill="#666667"/>
</svg>
