<svg xmlns="http://www.w3.org/2000/svg" width="22" height="19" fill="none" viewBox="0 0 22 19">
    <path fill="#E10600" fill-rule="evenodd" d="M21.652 6.818h-2.52c-1.46 0-2.85.637-3.803 1.743l-3.982 4.616v5.272c1.285-.18 1.957-1.042 1.957-1.042L21.91 7.4c.203-.223.045-.582-.257-.582zM.348 6.818h2.52c1.46 0 2.85.637 3.803 1.743l3.982 4.616v5.272c-1.285-.18-1.957-1.042-1.957-1.042L.09 7.4c-.203-.223-.045-.582.257-.582zM16.088.343v5.14c0 .73-.263 1.436-.739 1.988l-4.002 4.64V4.917L15.487.12c.206-.24.6-.094.6.223zM5.913.343v5.14c0 .73.262 1.436.738 1.988l4.002 4.64V4.917L6.514.12c-.207-.24-.601-.094-.601.223z" clip-rule="evenodd"/>
</svg>
