<svg width="64" height="64" viewBox="0 0 64 64" fill="none" xmlns="http://www.w3.org/2000/svg">
<path d="M54.9821 52.3294L44.2371 23L30 27.1687L38.9411 59.4651C39.1748 60.2642 40.0829 60.0869 40.6364 59.4651L44.8748 52.3294L54.1988 53.5289C54.4588 53.2375 55.1166 52.6962 54.9821 52.3294Z" fill="#00B74F"/>
<path d="M9.01794 52.3294L19.7629 23L34 27.1687L25.0589 59.4651C24.8252 60.2642 23.9171 60.0869 23.3636 59.4651L19.1252 52.3294L9.8012 53.5289C9.5412 53.2375 8.88341 52.6962 9.01794 52.3294Z" fill="#00B74F"/>
<path d="M31.5 6C37.3132 6 42.9692 6.65546 48.3959 7.89462C48.7928 10.0083 49 12.1866 49 14.4125C49 27.345 42.0003 38.6801 31.5 45C20.9997 38.6801 14 27.345 14 14.4125C14 12.1866 14.2072 10.0083 14.6041 7.89462C20.0308 6.65546 25.6868 6 31.5 6Z" fill="#F8B64C"/>
<path d="M30.707 26.8359L40.1877 15.9882" stroke="white" stroke-width="3" stroke-linecap="round"/>
<path d="M30.7031 26.9688L24.67 20.9286" stroke="white" stroke-width="3" stroke-linecap="round"/>
<path d="M50.3751 7.23216L50.1709 6.14917L49.0693 5.8983C37.9449 3.36713 26.0571 3.36744 14.9307 5.89799L13.8291 6.14886L13.6249 7.23185C13.2101 9.43255 13 11.6911 13 13.9452C13 26.8827 19.764 38.6626 31.0939 45.4567L32 46L32.9061 45.4567C44.236 38.6626 51 26.8827 51 13.9452C51 11.6911 50.7899 9.43255 50.3751 7.23216ZM32 42.032C22.2451 35.78 16.4545 25.3579 16.4545 13.9452C16.4545 12.2644 16.5831 10.5811 16.8366 8.9268C26.7473 6.83879 37.2547 6.83848 47.1631 8.92721C47.4173 10.5812 47.5455 12.2644 47.5455 13.9452C47.5455 25.3579 41.7549 35.78 32 42.032Z" fill="#FFD15C"/>
</svg>
