<svg width="20" height="10" viewBox="0 0 20 10" fill="none" xmlns="http://www.w3.org/2000/svg">
<path fill-rule="evenodd" clip-rule="evenodd" d="M0 2C0 0.895431 0.895431 0 2 0H18C19.1046 0 20 0.895431 20 2V7.3693C20 8.47387 19.1046 9.3693 18 9.3693H2C0.895431 9.3693 0 8.47387 0 7.3693V2ZM4.39178 4.43462L5.04863 3.49769L4.40442 3.12292L3.82336 4.13481L3.24231 3.12292L2.5981 3.49769L3.25494 4.43462L2.10547 4.39715V5.09672L3.25494 5.05924L2.5981 5.99617L3.24231 6.37094L3.82336 5.35906L4.40442 6.37094L5.04863 5.99617L4.39178 5.05924L5.54126 5.09672V4.39715L4.39178 4.43462ZM9.25895 3.49787L8.60211 4.4348L9.75158 4.39733V5.0969L8.60211 5.05942L9.25895 5.99635L8.61474 6.37112L8.03368 5.35924L7.45263 6.37112L6.80842 5.99635L7.46526 5.05942L6.31579 5.0969V4.39733L7.46526 4.4348L6.80842 3.49787L7.45263 3.1231L8.03368 4.13499L8.61474 3.1231L9.25895 3.49787ZM12.8126 4.4348L13.4695 3.49787L12.8253 3.1231L12.2442 4.13499L11.6632 3.1231L11.0189 3.49787L11.6758 4.4348L10.5263 4.39733V5.0969L11.6758 5.05942L11.0189 5.99635L11.6632 6.37112L12.2442 5.35924L12.8253 6.37112L13.4695 5.99635L12.8126 5.05942L13.9621 5.0969V4.39733L12.8126 4.4348ZM17.68 3.49787L17.0232 4.4348L18.1726 4.39733V5.0969L17.0232 5.05942L17.68 5.99635L17.0358 6.37112L16.4547 5.35924L15.8737 6.37112L15.2295 5.99635L15.8863 5.05942L14.7368 5.0969V4.39733L15.8863 4.4348L15.2295 3.49787L15.8737 3.1231L16.4547 4.13499L17.0358 3.1231L17.68 3.49787Z" fill="#00B74F"/>
</svg>
