<svg width="20" height="19" viewBox="0 0 20 19" fill="none" xmlns="http://www.w3.org/2000/svg">
<path d="M17.5341 5.11945C17.5341 3.48467 17.538 3.60199 17.5302 3.59808L8.76511 0L0.0038956 3.59808C0 3.59808 0 3.48075 0 5.11945C0.229841 5.11945 17.3393 5.11945 17.5341 5.11945ZM8.18466 1.95157C8.18466 1.62696 8.44567 1.36493 8.769 1.36493C9.09234 1.36493 9.35334 1.62696 9.35334 1.95157V3.20308C9.35334 3.52769 9.09234 3.78972 8.769 3.78972C8.44567 3.78972 8.18466 3.52769 8.18466 3.20308V1.95157Z" fill="#666667"/>
<path d="M20 13.2269L17.499 10.7122V12.5112H12.3022V13.9426H17.499V15.7377L20 13.2269Z" fill="#069E4E"/>
<path d="M7.80273 15.7378L10.3076 13.2269V15.0221H15.5043V16.4574H10.3076V18.2525L7.80273 15.7378Z" fill="#069E4E"/>
<path d="M10.0545 11.8346V6.29272H7.4834V14.4197L9.29485 12.5972L10.0545 11.8346Z" fill="#666667"/>
<path d="M15.7615 6.29272H13.1904V11.6234H15.7615V6.29272Z" fill="#666667"/>
<path d="M4.34356 6.29272H1.77246V15.1354H4.34356V6.29272Z" fill="#666667"/>
<path d="M6.7316 16.3087H0V17.6776H8.09506L6.79004 16.3674L6.7316 16.3087Z" fill="#666667"/>
</svg>
