<svg width="24" height="24" viewBox="0 0 24 24" fill="none" xmlns="http://www.w3.org/2000/svg">
<path d="M8.47222 2.69767C8.47222 2.16621 8.02872 1.75 7.5 1.75C6.97128 1.75 6.52778 2.16621 6.52778 2.69767V3.61047H4.61111C2.4869 3.61047 0.75 5.27611 0.75 7.34884V7.45764C0.75 9.47275 2.08439 11.2542 4.051 11.8875L10.339 13.9122C11.5181 14.2919 12.3056 15.3543 12.3056 16.5424V16.6512C12.3056 17.661 11.4557 18.4942 10.3889 18.4942H4.61111C3.54435 18.4942 2.69444 17.661 2.69444 16.6512V15.7209C2.69444 15.1895 2.25095 14.7733 1.72222 14.7733C1.1935 14.7733 0.75 15.1895 0.75 15.7209V16.6512C0.75 18.7239 2.4869 20.3895 4.61111 20.3895H6.52778V21.3023C6.52778 21.8338 6.97128 22.25 7.5 22.25C8.02872 22.25 8.47222 21.8338 8.47222 21.3023V20.3895H10.3889C12.5131 20.3895 14.25 18.7239 14.25 16.6512V16.5424C14.25 14.5273 12.9156 12.7458 10.949 12.1125L4.66102 10.0878C3.48189 9.7081 2.69444 8.64574 2.69444 7.45764V7.34884C2.69444 6.33904 3.54435 5.50581 4.61111 5.50581H10.3889C11.4557 5.50581 12.3056 6.33904 12.3056 7.34884V8.27907C12.3056 8.81053 12.7491 9.22674 13.2778 9.22674C13.8065 9.22674 14.25 8.81053 14.25 8.27907V7.34884C14.25 5.27611 12.5131 3.61047 10.3889 3.61047H8.47222V2.69767Z" fill="white" stroke="white" stroke-width="0.5" stroke-linecap="round"/>
<path d="M20.2803 8.21967C19.9874 7.92678 19.5126 7.92678 19.2197 8.21967C18.9268 8.51256 18.9268 8.98744 19.2197 9.28033L21.4393 11.5H17C16.5858 11.5 16.25 11.8358 16.25 12.25C16.25 12.6642 16.5858 13 17 13H21.4393L19.2197 15.2197C18.9268 15.5126 18.9268 15.9874 19.2197 16.2803C19.5126 16.5732 19.9874 16.5732 20.2803 16.2803L23.0732 13.4874C23.7566 12.804 23.7566 11.696 23.0732 11.0126L20.2803 8.21967Z" fill="white"/>
</svg>
