<svg width="19" height="20" viewBox="0 0 19 20" fill="none" xmlns="http://www.w3.org/2000/svg">
<path fill-rule="evenodd" clip-rule="evenodd" d="M2 0C0.895431 0 0 0.895431 0 2V18C0 19.1046 0.895428 20 2 20H8.83333C9.9379 20 10.8333 19.1046 10.8333 18V2C10.8333 0.895431 9.9379 0 8.83333 0H2ZM4.58333 0.833333C4.35321 0.833333 4.16667 1.01988 4.16667 1.25C4.16667 1.48012 4.35321 1.66667 4.58333 1.66667H6.25C6.48012 1.66667 6.66667 1.48012 6.66667 1.25C6.66667 1.01988 6.48012 0.833333 6.25 0.833333H4.58333ZM4.16667 18.75C4.16667 18.5199 4.35321 18.3333 4.58333 18.3333H6.25C6.48012 18.3333 6.66667 18.5199 6.66667 18.75C6.66667 18.9801 6.48012 19.1667 6.25 19.1667H4.58333C4.35321 19.1667 4.16667 18.9801 4.16667 18.75ZM10 2.5H0.833333V17.5H10V2.5Z" fill="#666667"/>
<path d="M2.5 6.1665C2.5 5.06193 3.39543 4.1665 4.5 4.1665H16.3333C17.4379 4.1665 18.3333 5.06193 18.3333 6.1665V9.6665C18.3333 10.7711 17.4379 11.6665 16.3333 11.6665H10.8333L7.47901 14.35C7.15163 14.6119 6.66667 14.3788 6.66667 13.9595V11.6665H4.5C3.39543 11.6665 2.5 10.7711 2.5 9.6665V6.1665Z" fill="#00B74F"/>
</svg>
