<svg width="25" height="24" viewBox="0 0 25 24" fill="none" xmlns="http://www.w3.org/2000/svg">
<g clip-path="url(#clip0_3684_9400)">
<path d="M9.47222 2.69767C9.47222 2.16621 9.02872 1.75 8.5 1.75C7.97128 1.75 7.52778 2.16621 7.52778 2.69767V3.61047H5.61111C3.4869 3.61047 1.75 5.27611 1.75 7.34884V7.45764C1.75 9.47275 3.08439 11.2542 5.051 11.8875L11.339 13.9122C12.5181 14.2919 13.3056 15.3543 13.3056 16.5424V16.6512C13.3056 17.661 12.4557 18.4942 11.3889 18.4942H5.61111C4.54435 18.4942 3.69444 17.661 3.69444 16.6512V15.7209C3.69444 15.1895 3.25095 14.7733 2.72222 14.7733C2.1935 14.7733 1.75 15.1895 1.75 15.7209V16.6512C1.75 18.7239 3.4869 20.3895 5.61111 20.3895H7.52778V21.3023C7.52778 21.8338 7.97128 22.25 8.5 22.25C9.02872 22.25 9.47222 21.8338 9.47222 21.3023V20.3895H11.3889C13.5131 20.3895 15.25 18.7239 15.25 16.6512V16.5424C15.25 14.5273 13.9156 12.7458 11.949 12.1125L5.66102 10.0878C4.48189 9.7081 3.69444 8.64574 3.69444 7.45764V7.34884C3.69444 6.33904 4.54435 5.50581 5.61111 5.50581H11.3889C12.4557 5.50581 13.3056 6.33904 13.3056 7.34884V8.27907C13.3056 8.81053 13.7491 9.22674 14.2778 9.22674C14.8065 9.22674 15.25 8.81053 15.25 8.27907V7.34884C15.25 5.27611 13.5131 3.61047 11.3889 3.61047H9.47222V2.69767Z" fill="#666667" stroke="#666667" stroke-width="0.5" stroke-linecap="round"/>
<path d="M21.2803 8.21967C20.9874 7.92678 20.5126 7.92678 20.2197 8.21967C19.9268 8.51256 19.9268 8.98744 20.2197 9.28033L22.4393 11.5H18C17.5858 11.5 17.25 11.8358 17.25 12.25C17.25 12.6642 17.5858 13 18 13H22.4393L20.2197 15.2197C19.9268 15.5126 19.9268 15.9874 20.2197 16.2803C20.5126 16.5732 20.9874 16.5732 21.2803 16.2803L24.0732 13.4874C24.7566 12.804 24.7566 11.696 24.0732 11.0126L21.2803 8.21967Z" fill="#00B74F"/>
</g>
<defs>
<clipPath id="clip0_3684_9400">
<rect width="24" height="24" fill="white" transform="translate(0.5)"/>
</clipPath>
</defs>
</svg>
