<svg width="64" height="64" viewBox="0 0 64 64" fill="none" xmlns="http://www.w3.org/2000/svg">
<path d="M31.9423 50.822C45.9764 50.822 57.3533 39.4451 57.3533 25.411C57.3533 11.3769 45.9764 0 31.9423 0C17.9082 0 6.53125 11.3769 6.53125 25.411C6.53125 39.4451 17.9082 50.822 31.9423 50.822Z" fill="#FFD15C"/>
<path d="M11.3566 40.2773L2.61328 55.4332L12.818 54.8915L17.4542 64.0002L25.5424 49.9781C19.7471 48.4789 14.7708 44.9892 11.3566 40.2773Z" fill="#00B74F"/>
<path d="M52.5777 40.2012C49.1887 44.9256 44.2124 48.4279 38.4297 49.9524L46.5431 63.9996L51.1793 54.8909L61.384 55.4327L52.5777 40.2012Z" fill="#00B74F"/>
<path d="M31.9423 43.83C42.1148 43.83 50.3612 35.5836 50.3612 25.4111C50.3612 15.2386 42.1148 6.99219 31.9423 6.99219C21.7699 6.99219 13.5234 15.2386 13.5234 25.4111C13.5234 35.5836 21.7699 43.83 31.9423 43.83Z" fill="#F8B64C"/>
<path d="M44.5675 23.4211C45.1344 22.8668 44.8195 21.8967 44.0384 21.7833L36.7691 20.7251C36.4541 20.6747 36.1896 20.4857 36.051 20.1959L32.8006 13.6069C32.4478 12.8888 31.4273 12.8888 31.0746 13.6069L27.8368 20.1959C27.6982 20.4731 27.421 20.6747 27.1187 20.7251L19.8494 21.7833C19.0683 21.8967 18.7533 22.8668 19.3203 23.4211L24.5738 28.5487C24.8006 28.7755 24.9014 29.0904 24.851 29.3928L23.6163 36.6243C23.4777 37.4054 24.3092 38.0101 25.0147 37.6321L31.5155 34.218C31.7927 34.0668 32.1329 34.0668 32.41 34.218L38.9108 37.6321C39.6163 37.9975 40.4352 37.4054 40.3092 36.6243L39.062 29.3928C39.0116 29.0778 39.1124 28.7629 39.3392 28.5487L44.5675 23.4211Z" fill="white"/>
</svg>
