<svg xmlns="http://www.w3.org/2000/svg" width="24" height="24" fill="none" viewBox="0 0 24 24">
    <path fill="#00B74F" d="M16.207 2.793c-.39-.39-1.024-.39-1.414 0-.39.39-.39 1.024 0 1.414l.789.79H10c-3.866 0-7 3.133-7 7v1c0 .551.448 1 1 1s1-.449 1-1v-1c0-2.762 2.239-5 5-5h5.587l-.794.793c-.39.39-.39 1.024 0 1.414.39.39 1.024.39 1.414 0l2.145-2.145c.586-.586.586-1.535 0-2.121l-2.145-2.145z"/>
    <path fill="#666667" d="M13.998 19c3.867 0 7-3.134 7-7v-1c0-.552-.447-1-1-1-.552 0-1 .448-1 1v1c0 2.761-2.238 5-5 5H8.412l.794-.794c.39-.39.39-1.024 0-1.414-.391-.39-1.024-.39-1.415 0l-2.145 2.145c-.585.586-.585 1.535 0 2.121l2.145 2.145c.39.39 1.024.39 1.415 0 .39-.39.39-1.023 0-1.414L8.416 19h5.582z"/>
</svg>
