<svg width="21" height="20" viewBox="0 0 21 20" fill="none" xmlns="http://www.w3.org/2000/svg">
<path d="M16.7754 6.37256L14.5605 8.58306C14.8314 9.3479 14.8798 10.1736 14.7002 10.9648C14.5207 11.756 14.1205 12.4803 13.5458 13.054C12.9712 13.6277 12.2456 14.0274 11.453 14.2069C10.6603 14.3864 9.83292 14.3384 9.06647 14.0684L7.9209 15.2117C8.76371 15.427 9.62999 15.5373 10.5 15.54C16.147 15.54 20.6559 10.6319 20.8433 10.4231C20.9442 10.3105 21 10.1648 21 10.0137C21 9.8627 20.9442 9.71696 20.8433 9.60439C20.7346 9.48322 19.1715 7.78114 16.7754 6.37256Z" fill="#BACDDF"/>
<path d="M20.2782 0.255147C20.1972 0.174262 20.1011 0.110095 19.9953 0.0663146C19.8894 0.0225344 19.776 0 19.6615 0C19.5469 0 19.4335 0.0225344 19.3277 0.0663146C19.2219 0.110095 19.1258 0.174262 19.0448 0.255147L14.1504 5.14035C13.0184 4.74327 11.7891 4.48743 10.5 4.48743C4.85296 4.48743 0.344108 9.39555 0.156666 9.60432C0.0557767 9.7169 0 9.86263 0 10.0137C0 10.1647 0.0557767 10.3104 0.156666 10.423C0.279713 10.5585 2.22591 12.6794 5.1249 14.1481L0.721862 18.5437C0.57077 18.7093 0.489452 18.9267 0.494821 19.1505C0.500191 19.3744 0.591835 19.5876 0.750692 19.7458C0.909548 19.904 1.12339 19.995 1.34773 19.9998C1.57208 20.0046 1.78965 19.923 1.9552 19.7718L20.2782 1.48566C20.4416 1.32246 20.5334 1.10115 20.5334 0.870402C20.5334 0.639651 20.4416 0.418346 20.2782 0.255147ZM6.19336 10.0137C6.19289 9.23801 6.40286 8.4767 6.80099 7.81054C7.19911 7.14438 7.77053 6.59823 8.4546 6.23007C9.13866 5.86191 9.90984 5.68547 10.6863 5.71948C11.4627 5.7535 12.2154 5.99669 12.8646 6.42325L11.9483 7.33774L11.89 7.29026C11.461 7.06578 10.9844 6.9469 10.5 6.94354C9.96669 6.94305 9.44243 7.08109 8.97875 7.34407C8.51508 7.60705 8.12795 7.98593 7.85543 8.44347C7.58292 8.901 7.43438 9.42143 7.42444 9.95361C7.41449 10.4858 7.54348 11.0114 7.79871 11.4787L6.90252 12.3736C6.43909 11.6735 6.19245 10.8527 6.19336 10.0137Z" fill="#BACDDF"/>
<path d="M10.5002 13.084C11.2247 13.082 11.9253 12.8248 12.4784 12.3578C13.0316 11.8908 13.4018 11.244 13.5239 10.5312C13.2124 10.6338 12.8791 10.6515 12.5584 10.5824L10.0811 13.0549C10.22 13.0741 10.36 13.0838 10.5002 13.084Z" fill="#BACDDF"/>
</svg>
