<svg width="21" height="11" viewBox="0 0 21 11" fill="none" xmlns="http://www.w3.org/2000/svg">
<path d="M20.8433 5.09259C20.6559 4.88481 16.147 0 10.5 0C4.85296 0 0.344107 4.88481 0.156665 5.09259C0.0557759 5.20463 0 5.34968 0 5.5C0 5.65032 0.0557759 5.79537 0.156665 5.90741C0.344107 6.11478 4.85296 11 10.5 11C16.147 11 20.6559 6.11518 20.8433 5.90741C20.9442 5.79537 21 5.65032 21 5.5C21 5.34968 20.9442 5.20463 20.8433 5.09259ZM10.5 9.77778C9.64823 9.77778 8.81558 9.52689 8.10735 9.05684C7.39913 8.58679 6.84714 7.9187 6.52118 7.13703C6.19522 6.35537 6.10993 5.49525 6.2761 4.66545C6.44228 3.83564 6.85245 3.07341 7.45474 2.47515C8.05704 1.8769 8.82441 1.46948 9.65981 1.30442C10.4952 1.13936 11.3611 1.22407 12.1481 1.54785C12.935 1.87162 13.6076 2.41992 14.0808 3.12339C14.5541 3.82687 14.8066 4.65394 14.8066 5.5C14.8052 6.63411 14.351 7.72136 13.5437 8.5233C12.7364 9.32523 11.6418 9.77638 10.5 9.77778Z" fill="#BACDDF"/>
<path d="M11.1149 4.27768C11.1153 3.98622 11.1858 3.69906 11.3205 3.44017C11.4553 3.18127 11.6505 2.95815 11.8897 2.78942C11.4607 2.56601 10.9841 2.4477 10.4997 2.44435C9.91311 2.44274 9.33827 2.60776 8.84298 2.91996C8.34768 3.23216 7.95258 3.67852 7.70426 4.20641C7.45594 4.7343 7.36475 5.32171 7.44145 5.89939C7.51814 6.47706 7.75952 7.0209 8.13713 7.4668C8.51474 7.9127 9.01283 8.24206 9.57267 8.41605C10.1325 8.59003 10.7308 8.60139 11.2969 8.44879C11.863 8.29618 12.3734 7.98597 12.7679 7.55473C13.1624 7.12349 13.4245 6.5892 13.5234 6.01487C12.2847 6.41168 11.1149 5.48035 11.1149 4.27768Z" fill="#BACDDF"/>
</svg>
