<svg width="22" height="22" viewBox="0 0 22 22" fill="none" xmlns="http://www.w3.org/2000/svg">
<g opacity="0.9">
<path d="M2.02857 6.48571V4.25714C2.02857 2.99832 2.99832 2.02857 4.25714 2.02857H6.48571C6.76975 2.02857 7 1.79832 7 1.51429C7 1.23025 6.76975 1 6.48571 1H4.25714C2.43025 1 1 2.43025 1 4.25714V6.48571C1 6.76975 1.23025 7 1.51429 7C1.79832 7 2.02857 6.76975 2.02857 6.48571Z" fill="#666667" stroke="#666667"/>
<path d="M19.9714 6.48571V4.25714C19.9714 2.99832 19.0017 2.02857 17.7429 2.02857H15.5143C15.2303 2.02857 15 1.79832 15 1.51429C15 1.23025 15.2303 1 15.5143 1H17.7429C19.5697 1 21 2.43025 21 4.25714V6.48571C21 6.76975 20.7697 7 20.4857 7C20.2017 7 19.9714 6.76975 19.9714 6.48571Z" fill="#666667" stroke="#666667"/>
<path d="M2.02857 15.5143V17.7429C2.02857 19.0017 2.99832 19.9714 4.25714 19.9714H6.48571C6.76975 19.9714 7 20.2017 7 20.4857C7 20.7697 6.76975 21 6.48571 21H4.25714C2.43025 21 1 19.5697 1 17.7429V15.5143C1 15.2303 1.23025 15 1.51429 15C1.79832 15 2.02857 15.2303 2.02857 15.5143Z" fill="#666667" stroke="#666667"/>
<path d="M19.9714 15.5143V17.7429C19.9714 19.0017 19.0017 19.9714 17.7429 19.9714H15.5143C15.2303 19.9714 15 20.2017 15 20.4857C15 20.7697 15.2303 21 15.5143 21H17.7429C19.5697 21 21 19.5697 21 17.7429V15.5143C21 15.2303 20.7697 15 20.4857 15C20.2017 15 19.9714 15.2303 19.9714 15.5143Z" fill="#666667" stroke="#666667"/>
<path d="M6.43848 8.55329V9.98267C6.43848 10.2785 6.66233 10.5184 6.93848 10.5184C7.21462 10.5184 7.43848 10.2785 7.43848 9.98267V8.55329C7.43848 8.25743 7.21462 8.01758 6.93848 8.01758C6.66233 8.01758 6.43848 8.25743 6.43848 8.55329Z" fill="#00B74F" stroke="#00B74F"/>
<path d="M14.6846 8.55329V9.98267C14.6846 10.2785 14.9084 10.5184 15.1846 10.5184C15.4607 10.5184 15.6846 10.2785 15.6846 9.98267V8.55329C15.6846 8.25743 15.4607 8.01758 15.1846 8.01758C14.9084 8.01758 14.6846 8.25743 14.6846 8.55329Z" fill="#00B74F" stroke="#00B74F"/>
<path d="M7.48263 15.7705C8.45792 16.6807 9.63911 17.1401 10.9996 17.1401C12.3602 17.1401 13.5414 16.6807 14.5167 15.7705C14.7292 15.5721 14.7406 15.2391 14.5423 15.0266C14.344 14.8141 14.0109 14.8026 13.7984 15.0009C13.0193 15.7281 12.0953 16.0874 10.9996 16.0874C9.90403 16.0874 8.97996 15.7281 8.20086 15.0009C7.98836 14.8026 7.65532 14.8141 7.45698 15.0266C7.25865 15.2391 7.27013 15.5721 7.48263 15.7705Z" fill="#00B74F" stroke="#00B74F"/>
<path d="M10.9996 8.54389V12.2281C10.9996 12.4639 10.8843 12.579 10.6474 12.579H10.2978C10.0071 12.579 9.77148 12.8146 9.77148 13.1053C9.77148 13.396 10.0071 13.6316 10.2978 13.6316H10.6474C11.4654 13.6316 12.0522 13.0455 12.0522 12.2281V8.54389C12.0522 8.25322 11.8165 8.01758 11.5259 8.01758C11.2352 8.01758 10.9996 8.25322 10.9996 8.54389Z" fill="#00B74F" stroke="#00B74F"/>
</g>
</svg>
