<svg width="25" height="24" viewBox="0 0 25 24" fill="none" xmlns="http://www.w3.org/2000/svg">
<path d="M14.2811 5.57254C14.0616 5.42142 13.7761 5.48791 13.6389 5.72971L12.4642 7.01727V2.51382C12.4642 2.22971 12.2556 2 11.9976 2C11.7396 2 11.531 2.22971 11.531 2.51382V7.01727L10.3563 5.72971C10.2191 5.48791 9.92816 5.42142 9.71408 5.57254C9.57685 5.66926 9.5 5.83851 9.5 6.00777C9.5 6.10449 9.52196 6.19516 9.57136 6.28584L11.6079 8.76425C11.6957 8.90933 11.8439 9 12.0031 9C12.1623 9 12.3105 8.90933 12.3983 8.76425L14.4348 6.28584C14.5611 6.04404 14.5007 5.72366 14.2811 5.57254Z" fill="#00B74F"/>
<path d="M16.5 13C17.0488 13 17.5 12.5488 17.5 12C17.5 11.4512 17.0488 11 16.5 11C15.9512 11 15.5 11.4512 15.5 12C15.5 12.5488 15.9512 13 16.5 13Z" fill="#00B74F"/>
<path d="M21.8254 10.9748H20.9699L19.1848 9.11029L20.1952 5.95118C20.2761 5.69086 20.2154 5.40238 20.0268 5.21242C19.8382 5.01541 19.5687 4.95209 19.3195 5.03652L16.0793 6.16226C16.0119 6.14819 15.9244 6.12708 15.83 6.09894C15.8772 6.42259 15.8233 6.76734 15.6414 7.06285L15.6077 7.11914L15.5673 7.16839L15.3113 7.46389C15.6953 7.54832 15.9176 7.60461 15.9311 7.61165C16.0658 7.64683 16.2005 7.64683 16.3353 7.59758L18.4505 6.85881L17.7364 9.07511C17.6556 9.33544 17.7162 9.62391 17.9049 9.81387L20.1952 12.2061C20.3232 12.3398 20.4984 12.4171 20.687 12.4171H21.1383V14.8093C20.5253 15.0978 19.5014 15.5974 19.1241 15.8999C17.1032 17.5111 16.6519 19.453 16.5643 20.5295H15.4124V18.862C15.4124 18.6228 15.3046 18.4047 15.116 18.271C14.9341 18.1373 14.6916 18.1021 14.4828 18.1795C11.2089 19.4108 8.39308 18.2077 8.36614 18.1936C8.15057 18.0951 7.90806 18.1232 7.71271 18.2569C7.51735 18.3906 7.40283 18.6157 7.40283 18.862V20.5295H6.20376C5.42907 19.1012 2.6941 13.4514 5.22698 9.72241C6.06903 8.4841 7.322 7.78754 8.67601 7.42168L8.46044 7.17542L8.42003 7.12617L8.38634 7.06989C8.25162 6.84474 8.17752 6.58441 8.17752 6.32408C8.17752 6.23262 8.18425 6.14819 8.19773 6.06376C6.41259 6.57737 5.01815 7.53425 4.08853 8.89921C4.07506 8.92032 4.06159 8.94846 4.04138 8.96957C4.0077 8.94846 3.98075 8.92032 3.96054 8.88514C3.86623 8.75146 3.88644 8.51927 3.92012 8.35041C4.00096 7.9564 3.75845 7.57647 3.38121 7.49204C3.00398 7.40761 2.64021 7.6609 2.55938 8.05491C2.5459 8.11823 2.53917 8.18155 2.52569 8.23784C2.42465 8.97661 2.64021 9.46912 2.84904 9.75759C3.00398 9.96866 3.18586 10.1305 3.36774 10.2431C2.58632 12.185 2.57285 14.5842 3.34753 17.2789C4.05485 19.7415 5.15288 21.5849 5.20004 21.6623C5.32803 21.8734 5.55033 22 5.7861 22H8.07647C8.46044 22 8.77032 21.6763 8.77032 21.2753V19.8752C9.86835 20.1636 11.7882 20.4662 14.0045 19.8681V21.2753C14.0045 21.6763 14.3144 22 14.6983 22H17.2312C17.4333 22 17.6219 21.9156 17.7499 21.7537C17.8846 21.599 17.9453 21.3949 17.9183 21.1838C17.9049 21.0924 17.696 18.855 19.9392 17.0679C20.2087 16.8568 21.3539 16.2939 22.0814 15.9632C22.3374 15.8506 22.4991 15.5903 22.4991 15.3019V11.7136C22.5193 11.2984 22.2094 10.9748 21.8254 10.9748Z" fill="#666667" stroke="#666667" stroke-width="0.5"/>
</svg>
