<?xml version="1.0" encoding="UTF-8"?>
<svg fill="none" viewBox="0 0 165 137" xmlns="http://www.w3.org/2000/svg">
    <defs>
        <filter id="d" x="2.1143" y="4.1816" width="161.21" height="132.76"
            color-interpolation-filters="sRGB" filterUnits="userSpaceOnUse">
            <feFlood flood-opacity="0" result="BackgroundImageFix" />
            <feColorMatrix in="SourceAlpha" result="hardAlpha"
                values="0 0 0 0 0 0 0 0 0 0 0 0 0 0 0 0 0 0 127 0" />
            <feOffset dy="11" />
            <feGaussianBlur stdDeviation="11" />
            <feColorMatrix values="0 0 0 0 0.397708 0 0 0 0 0.47749 0 0 0 0 0.575 0 0 0 0.27 0" />
            <feBlend in2="BackgroundImageFix" result="effect1_dropShadow" />
            <feBlend in="SourceGraphic" in2="effect1_dropShadow" result="shape" />
        </filter>
        <radialGradient id="c" cx="0" cy="0" r="1"
            gradientTransform="translate(80.738 62.026) rotate(90) scale(85.682 85.21)"
            gradientUnits="userSpaceOnUse">
            <stop stop-color="#E0FFEE" offset="0" />
            <stop stop-color="#E0FFEE" stop-opacity="0" offset="1" />
        </radialGradient>
        <linearGradient id="b" x1="82.391" x2="82.391" y1="122.62" y2="103.15"
            gradientUnits="userSpaceOnUse">
            <stop stop-color="#E8ECF5" offset="0" />
            <stop stop-color="#BDC4D7" offset=".9913" />
        </linearGradient>
        <linearGradient id="a" x1="97.407" x2="126.24" y1="129.92" y2="56.25"
            gradientUnits="userSpaceOnUse">
            <stop stop-color="#1D4289" offset="0" />
            <stop stop-color="#00B74F" offset=".81171" />
        </linearGradient>
    </defs>
    <path
        d="m80.738 124.05c34.056 0 61.684-27.764 61.684-62.094s-27.628-61.958-61.684-61.958c-34.056 0-61.684 27.765-61.684 62.094 0 34.33 27.628 61.958 61.684 61.958z"
        fill="url(#c)" />
    <path
        d="m111.1 123.23c-9.437 0.274-20.652 0-28.722-0.137-7.9327 0.274-19.285 0.411-28.722 0.137 9.3005-5.334 12.583-15.182 12.993-21.747h31.184c0.8206 6.429 4.1034 16.413 13.266 21.747z"
        fill="url(#b)" />
    <g filter="url(#d)">
        <path
            d="m141.33 18.738v81.653c0 2.051-1.641 3.556-3.419 3.556h-110.38c-1.9149 0-3.4193-1.642-3.4193-3.556v-81.653c0-1.9148 1.6412-3.5561 3.4193-3.5561h110.24c2.051 0 3.556 1.6413 3.556 3.5561z"
            fill="#fff" />
    </g>
    <path
        d="m141.33 18.738v70.301h-117.21v-70.301c0-1.9148 1.6412-3.5561 3.4193-3.5561h110.24c2.051 0 3.556 1.6413 3.556 3.5561z"
        fill="#989FB0" />
    <path d="m136.82 19.695h-108.73v65.377h108.87v-65.377h-0.137z" fill="#fff" />
    <path
        d="m82.516 99.076c1.6412 0 2.8722-1.231 2.8722-2.8722 0-1.6413-1.231-2.8722-2.8722-2.8722-1.6413 0-2.8722 1.2309-2.8722 2.8722 0 1.6412 1.2309 2.8722 2.8722 2.8722z"
        fill="#D0D8E6" />
    <path
        d="m130.52 31.731v8.3431c0 1.2309-0.958 2.1883-2.189 2.1883h-91.91c-1.2309 0-2.1883-0.9574-2.1883-2.1883v-8.3431c0-1.231 0.9574-2.1884 2.1883-2.1884h91.774c1.367-0.1367 2.325 0.9574 2.325 2.1884z"
        fill="#E5E9F1" />
    <path
        d="m47.092 29.406v12.993h-10.805c-1.231 0-2.1884-0.9574-2.1884-2.1884v-8.3431c0-1.2309 0.9574-2.1883 2.1884-2.1883l10.805-0.2736z"
        fill="#E3EAF2" />
    <path
        d="m130.52 49.238v8.3431c0 1.231-0.958 2.1884-2.189 2.1884h-91.91c-1.2309 0-2.1883-0.9574-2.1883-2.1884v-8.3431c0-1.2309 0.9574-2.1883 2.1883-2.1883h91.774c1.367-0.1368 2.325 0.9574 2.325 2.1883z"
        fill="#E5E9F1" opacity=".8" />
    <path
        d="m47.092 29.406v12.993h-10.805c-1.231 0-2.1884-0.9574-2.1884-2.1884v-8.3431c0-1.2309 0.9574-2.1883 2.1884-2.1883l10.805-0.2736z"
        fill="#00B74F" />
    <path
        d="m40.253 38.706c-0.2735 0-0.5471-0.1367-0.6838-0.2735l-2.0516-2.0516c-0.4103-0.4103-0.4103-0.9574 0-1.3677s0.9574-0.4103 1.3677 0l1.231 1.231 3.0089-3.009c0.4104-0.4103 0.9574-0.4103 1.3678 0 0.4103 0.4103 0.4103 0.9574 0 1.3677l-3.6929 3.6928c-0.1367 0.2736-0.4103 0.4103-0.5471 0.4103z"
        fill="#fff" />
    <path
        d="m130.52 66.744v8.3431c0 1.231-0.958 2.1884-2.189 2.1884h-91.91c-1.2309 0-2.1883-0.9574-2.1883-2.1884v-8.3431c0-1.2309 0.9574-2.1883 2.1883-2.1883h91.774c1.367-0.1368 2.325 0.8206 2.325 2.1883z"
        fill="#E5E9F1" opacity=".5" />
    <path
        d="m130.52 84.115v0.9574h-96.424v-0.9574c0-1.2309 0.9574-2.1883 2.1884-2.1883h91.911c1.367 0 2.325 0.9574 2.325 2.1883z"
        fill="#E5E9F1" opacity=".3" />
    <path
        d="m33.005 118.72c0 2.326-1.9148 4.24-4.2399 4.24h-23.525c-2.3251 0-4.2399-1.914-4.2399-4.24v-55.255c0-2.3251 1.9148-4.2399 4.2399-4.2399h23.388c2.3252 0 4.24 1.9148 4.24 4.2399l0.1367 55.255z"
        fill="#fff" />
    <path
        d="m28.765 59.085c2.3251 0 4.2399 1.9148 4.2399 4.2399v55.256c0 2.325-1.9148 4.24-4.2399 4.24h-23.525c-2.3251 0-4.2399-1.915-4.2399-4.24v-55.119c0-2.3252 1.9148-4.24 4.2399-4.24l23.525-0.1367z"
        fill="#989FB0" />
    <path
        d="m30.953 63.463v55.256c0 1.094-0.8206 2.188-2.0515 2.188h-23.798c-1.0942 0-2.0516-0.958-2.0516-2.188v-55.256c0-1.2309 0.9574-2.1883 2.0516-2.1883h3.4193c0.54708 0 0.82063 0.4103 0.82063 0.8206 0 0.8207 0.68383 1.6413 1.6412 1.6413h11.899c0.8206 0 1.6413-0.6839 1.6413-1.6413 0-0.5471 0.4103-0.8206 0.6838-0.8206h3.2825c1.3678-0.1368 2.4619 0.9574 2.4619 2.1883z"
        fill="#fff" />
    <path
        d="m19.054 62.094h-3.1458c-0.2735 0-0.5471-0.2736-0.5471-0.5471 0-0.2736 0.2736-0.5471 0.5471-0.5471h3.1458c0.2735 0 0.5471 0.2735 0.5471 0.5471-0.1368 0.2735-0.4104 0.5471-0.5471 0.5471z"
        fill="#fff" />
    <path
        d="m14.13 62.094h-0.2735c-0.2736 0-0.5471-0.2736-0.5471-0.5471 0-0.2736 0.2735-0.5471 0.5471-0.5471h0.2735c0.2735 0 0.5471 0.2735 0.5471 0.5471 0 0.2735-0.2736 0.5471-0.5471 0.5471z"
        fill="#fff" />
    <path
        d="m27.671 81.789h-21.336c-0.68386 0-1.0942-0.5471-1.0942-1.0941v-10.805c0-0.6839 0.54709-1.0942 1.0942-1.0942h21.473c0.6839 0 1.0942 0.5471 1.0942 1.0942v10.805c-0.1368 0.547-0.5471 1.0941-1.231 1.0941z"
        fill="#00B74F" />
    <path
        d="m16.182 78.097c-0.2735 0-0.547-0.1368-0.6838-0.2736l-2.0516-2.0515c-0.4103-0.4104-0.4103-0.9574 0-1.3678 0.4103-0.4103 0.9574-0.4103 1.3677 0l1.231 1.231 3.009-3.009c0.4103-0.4103 0.9574-0.4103 1.3677 0s0.4103 0.9574 0 1.3677l-3.5561 3.5561c-0.2735 0.4103-0.5471 0.5471-0.6839 0.5471z"
        fill="#fff" />
    <path
        d="m27.671 97.929h-21.336c-0.68386 0-1.0942-0.5471-1.0942-1.0942v-10.805c0-0.6838 0.54709-1.0942 1.0942-1.0942h21.473c0.6839 0 1.0942 0.5471 1.0942 1.0942v10.805c-0.1368 0.5471-0.5471 1.0942-1.231 1.0942z"
        fill="#E5E9F1" opacity=".8" />
    <path
        d="m27.671 114.07h-21.336c-0.68386 0-1.0942-0.548-1.0942-1.095v-10.805c0-0.683 0.54709-1.094 1.0942-1.094h21.473c0.6839 0 1.0942 0.547 1.0942 1.094v10.805c-0.1368 0.684-0.5471 1.095-1.231 1.095z"
        fill="#E5E9F1" opacity=".5" />
    <path
        d="m28.765 118.58v2.189h-23.662v-2.189c0-0.683 0.54708-1.094 1.0942-1.094h21.473c0.6838 0 1.0942 0.547 1.0942 1.094z"
        fill="#E5E9F1" opacity=".3" />
    <path
        d="m32.594 24.756c0.6839 0 1.231-0.547 1.231-1.2309s-0.5471-1.231-1.231-1.231c-0.6838 0-1.2309 0.5471-1.2309 1.231s0.5471 1.2309 1.2309 1.2309z"
        fill="#E3EAF2" />
    <path
        d="m36.561 24.756c0.6839 0 1.231-0.547 1.231-1.2309s-0.5471-1.231-1.231-1.231c-0.6838 0-1.2309 0.5471-1.2309 1.231s0.5471 1.2309 1.2309 1.2309z"
        fill="#E3EAF2" />
    <path
        d="m40.527 24.756c0.6839 0 1.231-0.547 1.231-1.2309s-0.5471-1.231-1.231-1.231c-0.6838 0-1.2309 0.5471-1.2309 1.231s0.5471 1.2309 1.2309 1.2309z"
        fill="#E3EAF2" />
    <path
        d="m164.05 101.13c-0.547 2.326-1.368 4.787-2.326 6.839-2.598 5.061-6.701 9.027-11.762 11.626-5.197 2.598-11.352 3.692-17.507 2.325-14.498-3.009-23.798-17.234-20.789-31.731 3.009-14.498 17.096-23.935 31.594-20.789 5.198 1.0942 9.711 3.6929 13.541 7.2489 6.428 6.5651 9.027 15.729 7.249 24.482z"
        fill="url(#a)" />
    <path
        d="m137.95 97.464 4.757-4.7572c0.391-0.3905 0.391-1.0237 0-1.4142-0.39-0.3905-1.024-0.3905-1.414 0l-4.757 4.7572 1.414 1.4142z"
        fill="#fff" />
    <path
        d="m134.29 100.88-1.987-1.9866c-5e-3 -0.0045-9e-3 -0.0091-0.014-0.0137l-2.586-2.5858c-0.39-0.3905-1.024-0.3905-1.414 0-0.391 0.3905-0.391 1.0237 0 1.4142l2.586 2.5859c0.923 0.924 2.3 1.119 3.415 0.586z"
        fill="#fff" />
    <path
        d="m147.71 91.243c0.391 0.3905 0.391 1.0237 0 1.4142l-7.635 7.6357c-1.172 1.172-3.072 1.172-4.243 0l-2.586-2.5857c-0.39-0.3905-0.39-1.0237 0-1.4142 0.391-0.3905 1.024-0.3905 1.414 0l2.586 2.5858c0.391 0.3905 1.024 0.3905 1.414 0l7.636-7.6358c0.391-0.3905 1.024-0.3905 1.414 0z"
        clip-rule="evenodd" fill="#fff" fill-rule="evenodd" />
    <path d="m1.4258 123.38h157.98" stroke="#BACDDF" stroke-linecap="round" stroke-linejoin="round"
        stroke-miterlimit="10" stroke-width="2" />
    <path
        d="m11.664 53.628c2.2643 0 4.1-1.8356 4.1-4.1 0-2.2643-1.8357-4.1-4.1-4.1-2.2644 0-4.1 1.8357-4.1 4.1 0 2.2644 1.8356 4.1 4.1 4.1z"
        fill="#E0FFEE" />
    <path
        d="m7.5646 40.328c1.5464 0 2.8-1.2536 2.8-2.8s-1.2536-2.8-2.8-2.8-2.8 1.2536-2.8 2.8 1.2536 2.8 2.8 2.8z"
        fill="#E0FFEE" />
    <path
        d="m124.59 7.515c1.546 0 2.8-1.2536 2.8-2.8s-1.254-2.8-2.8-2.8-2.8 1.2536-2.8 2.8 1.254 2.8 2.8 2.8z"
        fill="#E0FFEE" />
    <path
        d="m154.21 63.941c2.872 0 5.2-2.3281 5.2-5.2s-2.328-5.2-5.2-5.2-5.2 2.3281-5.2 5.2 2.328 5.2 5.2 5.2z"
        fill="#E0FFEE" />
</svg>
