<svg width="18" height="18" viewBox="0 0 18 18" fill="none" xmlns="http://www.w3.org/2000/svg">
<circle cx="14" cy="4" r="4" fill="#00B74F"/>
<path fill-rule="evenodd" clip-rule="evenodd" d="M9.10002 3H3C1.34315 3 0 4.34315 0 6V15C0 16.6569 1.34315 18 3 18H12C13.6569 18 15 16.6569 15 15V8.89998C14.6769 8.96557 14.3425 9 14 9C13.6575 9 13.3231 8.96557 13 8.89998V15C13 15.5523 12.5523 16 12 16H3C2.44772 16 2 15.5523 2 15V6C2 5.44772 2.44772 5 3 5H9.10002C9.03443 4.67689 9 4.34247 9 4C9 3.65753 9.03443 3.32311 9.10002 3Z" fill="#666667"/>
</svg>
