<svg width="23" height="22" viewBox="0 0 23 22" fill="none" xmlns="http://www.w3.org/2000/svg">
<path d="M21.9021 16.2055C21.819 15.9752 21.6884 15.7626 21.5177 15.5799C21.347 15.3972 21.1396 15.248 20.9074 15.141C20.6753 15.034 20.4229 14.9712 20.1649 14.9562C19.9069 14.9413 19.6482 14.9745 19.4039 15.0539L17.419 15.6362C17.4468 15.3945 17.42 15.1501 17.3404 14.9188C17.2607 14.6876 17.1301 14.4748 16.957 14.2944C16.7839 14.114 16.5722 13.97 16.3358 13.872C16.0995 13.7739 15.8438 13.7239 15.5854 13.7254H10.6806C8.93871 12.6298 7.47185 12.8627 4.58395 12.8627V12.4313C4.58395 12.3169 4.53566 12.2072 4.44969 12.1263C4.36373 12.0454 4.24713 12 4.12556 12H0.458395C0.336821 12 0.220227 12.0454 0.134261 12.1263C0.0482951 12.2072 0 12.3169 0 12.4313V19.3327C0 19.4471 0.0482951 19.5569 0.134261 19.6377C0.220227 19.7186 0.336821 19.7641 0.458395 19.7641H4.12556C4.24713 19.7641 4.36373 19.7186 4.44969 19.6377C4.53566 19.5569 4.58395 19.4471 4.58395 19.3327C4.58395 19.1818 4.5427 19.1904 4.71689 19.2853C6.52002 20.2619 8.53626 20.8383 10.612 20.9706C12.6877 21.1029 14.7681 20.7876 16.6948 20.0488L20.8203 18.4744C21.2686 18.291 21.628 17.9567 21.8281 17.5371C22.0282 17.1174 22.0546 16.6426 21.9021 16.2055ZM3.66716 18.9014H0.916791V12.8627H3.66716V18.9014ZM20.4765 17.6764L16.351 19.2465C14.5537 19.9373 12.6125 20.2323 10.6755 20.109C8.73854 19.9856 6.85719 19.4472 5.17528 18.5348L4.58395 18.2199V13.7254C7.60478 13.7254 8.73243 13.5399 10.1718 14.4414C10.4927 14.6441 10.2956 14.588 15.5854 14.588C15.7594 14.5886 15.9296 14.6357 16.0762 14.7239C16.2228 14.8121 16.3397 14.9377 16.4132 15.086C16.4867 15.2344 16.5139 15.3994 16.4915 15.5617C16.4691 15.724 16.3981 15.877 16.2868 16.0028C15.7734 16.4342 16.218 16.3134 10.5431 16.3134C10.4215 16.3134 10.3049 16.3588 10.219 16.4397C10.133 16.5206 10.0847 16.6303 10.0847 16.7447C10.0847 16.8591 10.133 16.9688 10.219 17.0497C10.3049 17.1306 10.4215 17.1761 10.5431 17.1761C15.7092 17.1761 16.1355 17.3357 16.846 16.7016L19.711 15.882C19.9613 15.8018 20.2347 15.8146 20.4753 15.9178C20.7158 16.0211 20.9053 16.207 21.0049 16.4375C21.1045 16.6679 21.1067 16.9255 21.011 17.1575C20.9154 17.3894 20.729 17.5782 20.4903 17.685L20.4765 17.6764Z" fill="white" stroke="white"/>
<path d="M2.145 17.145C2.07548 17.2151 2.02827 17.3042 2.00931 17.401C1.99035 17.4979 2.00049 17.5982 2.03845 17.6894C2.07642 17.7805 2.14051 17.8583 2.22264 17.9131C2.30478 17.9678 2.40128 17.9971 2.5 17.9971C2.59872 17.9971 2.69522 17.9678 2.77736 17.9131C2.85949 17.8583 2.92358 17.7805 2.96155 17.6894C2.99951 17.5982 3.00965 17.4979 2.99069 17.401C2.97173 17.3042 2.92452 17.2151 2.855 17.145C2.80852 17.0981 2.75322 17.0609 2.69229 17.0355C2.63136 17.0101 2.56601 16.9971 2.5 16.9971C2.43399 16.9971 2.36864 17.0101 2.30771 17.0355C2.24678 17.0609 2.19148 17.0981 2.145 17.145Z" fill="white"/>
<path d="M13 7.5H11C10.8674 7.5 10.7402 7.55268 10.6464 7.64645C10.5527 7.74021 10.5 7.86739 10.5 8C10.5 8.13261 10.5527 8.25979 10.6464 8.35355C10.7402 8.44732 10.8674 8.5 11 8.5H12V9C12 9.1326 12.0527 9.2598 12.1464 9.3536C12.2402 9.4473 12.3674 9.5 12.5 9.5C12.6326 9.5 12.7598 9.4473 12.8536 9.3536C12.9473 9.2598 13 9.1326 13 9V8.5C13.3978 8.5 13.7794 8.34196 14.0607 8.06066C14.342 7.77936 14.5 7.39782 14.5 7C14.5 6.60218 14.342 6.22064 14.0607 5.93934C13.7794 5.65804 13.3978 5.5 13 5.5H12C11.8674 5.5 11.7402 5.44732 11.6464 5.35355C11.5527 5.25979 11.5 5.13261 11.5 5C11.5 4.86739 11.5527 4.74021 11.6464 4.64645C11.7402 4.55268 11.8674 4.5 12 4.5H14C14.1326 4.5 14.2598 4.44732 14.3536 4.35355C14.4473 4.25979 14.5 4.13261 14.5 4C14.5 3.86739 14.4473 3.74021 14.3536 3.64645C14.2598 3.55268 14.1326 3.5 14 3.5H13V3C13 2.86739 12.9473 2.74021 12.8536 2.64645C12.7598 2.55268 12.6326 2.5 12.5 2.5C12.3674 2.5 12.2402 2.55268 12.1464 2.64645C12.0527 2.74021 12 2.86739 12 3V3.5C11.6022 3.5 11.2206 3.65804 10.9393 3.93934C10.658 4.22064 10.5 4.60218 10.5 5C10.5 5.39782 10.658 5.77936 10.9393 6.06066C11.2206 6.34196 11.6022 6.5 12 6.5H13C13.1326 6.5 13.2598 6.55268 13.3536 6.64645C13.4473 6.74021 13.5 6.86739 13.5 7C13.5 7.13261 13.4473 7.25979 13.3536 7.35355C13.2598 7.44732 13.1326 7.5 13 7.5Z" fill="white"/>
<path d="M12.5 11.5C13.5878 11.5 14.6512 11.1774 15.5556 10.5731C16.4601 9.9687 17.1651 9.1098 17.5813 8.10476C17.9976 7.09977 18.1065 5.9939 17.8943 4.92701C17.6821 3.86011 17.1583 2.8801 16.3891 2.11092C15.6199 1.34173 14.6399 0.817904 13.573 0.605684C12.5061 0.393464 11.4002 0.502384 10.3952 0.918674C9.39025 1.33495 8.53126 2.0399 7.92692 2.94437C7.32257 3.84884 7 4.91221 7 6C7 7.45869 7.57946 8.85764 8.61091 9.8891C9.64236 10.9205 11.0413 11.5 12.5 11.5ZM12.5 1.5C13.39 1.5 14.26 1.76392 15.0001 2.25839C15.7401 2.75286 16.3169 3.45566 16.6575 4.27793C16.9981 5.10019 17.0872 6.00499 16.9135 6.87791C16.7399 7.75082 16.3113 8.55265 15.682 9.182C15.0526 9.8113 14.2508 10.2399 13.3779 10.4135C12.505 10.5872 11.6002 10.4981 10.7779 10.1575C9.95566 9.8169 9.25285 9.2401 8.75839 8.50007C8.26392 7.76005 8 6.89002 8 6C8 4.80653 8.47411 3.66194 9.31802 2.81802C10.1619 1.97411 11.3065 1.5 12.5 1.5Z" fill="white"/>
</svg>
