<svg width="24" height="24" fill="none" xmlns="http://www.w3.org/2000/svg">
    <path fill-rule="evenodd" clip-rule="evenodd" d="M5 18.768a2 2 0 0 1 2.2.132l.8.6.8-.6a2 2 0 0 1 2.4 0l.8.6.8-.6a2 2 0 0 1 2.4 0l.8.6.8-.6a2 2 0 0 1 2.2-.132V5.232a2 2 0 0 1-2.2-.132l-.8-.6-.8.6a2 2 0 0 1-2.4 0l-.8-.6-.8.6a2 2 0 0 1-2.4 0L8 4.5l-.8.6a2 2 0 0 1-2.2.132v13.536zM10 3.5 8.6 2.45a1 1 0 0 0-1.2 0L6 3.5 4.64 2.367A1 1 0 0 0 3 3.135v17.73a1 1 0 0 0 1.64.768L6 20.5l1.4 1.05a1 1 0 0 0 1.2 0L10 20.5l1.4 1.05a1 1 0 0 0 1.2 0L14 20.5l1.4 1.05a1 1 0 0 0 1.2 0L18 20.5l1.36 1.133a1 1 0 0 0 1.64-.768V3.135a1 1 0 0 0-1.64-.768L18 3.5l-1.4-1.05a1 1 0 0 0-1.2 0L14 3.5l-1.4-1.05a1 1 0 0 0-1.2 0L10 3.5z" fill="#666667"/>
    <path fill-rule="evenodd" clip-rule="evenodd" d="M7 10a1 1 0 0 1 1-1h8a1 1 0 1 1 0 2H8a1 1 0 0 1-1-1zM7 14a1 1 0 0 1 1-1h4a1 1 0 1 1 0 2H8a1 1 0 0 1-1-1z" fill="#00B74F"/>
</svg>
