<svg width="24" height="24" viewBox="0 0 24 24" fill="none" xmlns="http://www.w3.org/2000/svg">
<g clip-path="url(#clip0)">
<path d="M18.034 10.092L18.09 11.408C17.698 11.4453 17.3433 11.464 17.026 11.464H16.97C15.6167 11.436 14.5107 10.96 13.652 10.036C12.8773 9.196 12.49 8.14133 12.49 6.872C12.49 5.46267 12.9753 4.34267 13.946 3.512C14.7673 2.82133 15.7707 2.476 16.956 2.476C18.188 2.476 19.224 2.87267 20.064 3.666C20.848 4.40333 21.24 5.32733 21.24 6.438C21.24 7.166 21.058 7.78667 20.694 8.3C20.2833 8.87867 19.7047 9.168 18.958 9.168C18.566 9.168 18.2487 9.098 18.006 8.958C17.7633 8.80867 17.6373 8.61733 17.628 8.384C17.3947 8.72 17.194 8.93467 17.026 9.028C16.858 9.12133 16.592 9.168 16.228 9.168C15.7613 9.168 15.36 8.96733 15.024 8.566C14.688 8.16467 14.52 7.67933 14.52 7.11C14.52 6.30733 14.786 5.67267 15.318 5.206C15.7287 4.842 16.186 4.66 16.69 4.66C16.9887 4.66 17.194 4.71133 17.306 4.814L17.446 4.646H18.804V7.292V7.334C18.804 7.66067 18.8693 7.824 19 7.824C19.42 7.824 19.63 7.362 19.63 6.438C19.63 5.57 19.2987 4.884 18.636 4.38C18.132 4.00667 17.572 3.82 16.956 3.82C16.06 3.82 15.3553 4.11867 14.842 4.716C14.3847 5.248 14.156 5.95267 14.156 6.83C14.156 8.09 14.5993 9 15.486 9.56C16.0553 9.91467 16.7507 10.106 17.572 10.134H17.586C17.5953 10.134 17.6047 10.134 17.614 10.134C17.7633 10.134 17.9033 10.12 18.034 10.092ZM17.11 5.948C16.942 5.92933 16.8253 5.92 16.76 5.92C16.4427 5.92 16.284 6.25133 16.284 6.914C16.284 7.49267 16.424 7.782 16.704 7.782C16.872 7.782 16.9793 7.73533 17.026 7.642C17.082 7.54867 17.11 7.362 17.11 7.082V5.948Z" fill="#00B74F"/>
<path fill-rule="evenodd" clip-rule="evenodd" d="M21 11.4722V19C21 20.6569 19.6569 22 18 22H4C2.34315 22 1 20.6569 1 19V9C1 7.34315 2.34315 6 4 6H11.083C11.0284 6.32521 11 6.65929 11 7C11 7.34071 11.0284 7.67479 11.083 8H4C3.61377 8 3.27868 8.21896 3.11209 8.53953L10.4453 13.4283C10.7812 13.6523 11.2188 13.6523 11.5547 13.4283L13.6897 12.005C14.3586 12.4483 15.1216 12.7611 15.9422 12.9071L12.6641 15.0924C11.6564 15.7642 10.3436 15.7642 9.33591 15.0924L3 10.8685V19C3 19.5523 3.44772 20 4 20H18C18.5523 20 19 19.5523 19 19V12.6586C19.7452 12.3952 20.4229 11.9887 21 11.4722Z" fill="#666667"/>
</g>
<defs>
<clipPath id="clip0">
<rect width="24" height="24" fill="white"/>
</clipPath>
</defs>
</svg>
