<svg width="11" height="20" viewBox="0 0 11 20" fill="none" xmlns="http://www.w3.org/2000/svg">
<path fill-rule="evenodd" clip-rule="evenodd" d="M2 0C0.895431 0 0 0.895431 0 2V18C0 19.1046 0.895428 20 2 20H8.83333C9.9379 20 10.8333 19.1046 10.8333 18V2C10.8333 0.895431 9.9379 0 8.83333 0H2ZM4.58333 0.833333C4.35321 0.833333 4.16667 1.01988 4.16667 1.25C4.16667 1.48012 4.35321 1.66667 4.58333 1.66667H6.25C6.48012 1.66667 6.66667 1.48012 6.66667 1.25C6.66667 1.01988 6.48012 0.833333 6.25 0.833333H4.58333ZM4.16667 18.75C4.16667 18.5199 4.35321 18.3333 4.58333 18.3333H6.25C6.48012 18.3333 6.66667 18.5199 6.66667 18.75C6.66667 18.9801 6.48012 19.1667 6.25 19.1667H4.58333C4.35321 19.1667 4.16667 18.9801 4.16667 18.75ZM10 2.5H0.833333V17.5H10V2.5Z" fill="#666667"/>
</svg>
