<svg width="18" height="20" viewBox="0 0 18 20" fill="none" xmlns="http://www.w3.org/2000/svg">
<path d="M15.8177 4.01375C15.6677 4.01375 15.5164 3.96 15.3964 3.85C13.5564 2.17375 11.1964 1.25 8.75018 1.25C6.30393 1.25 3.94392 2.17375 2.10392 3.85C1.84892 4.0825 1.45267 4.06375 1.22142 3.80875C0.988923 3.55375 1.00642 3.1575 1.26267 2.92625C3.33268 1.03875 5.99143 0 8.75018 0C11.5089 0 14.1677 1.03875 16.2389 2.92625C16.4939 3.15875 16.5127 3.55375 16.2802 3.80875C16.1564 3.945 15.9864 4.01375 15.8177 4.01375Z" fill="#666667"/>
<path d="M16.875 8.09733C16.6738 8.09733 16.4763 8.00108 16.3563 7.82108C14.6213 5.23733 11.7775 3.69607 8.75004 3.69607C5.72254 3.69607 2.87879 5.23858 1.14378 7.82108C0.951284 8.10858 0.562534 8.18483 0.276284 7.99108C-0.00996659 7.79858 -0.0862162 7.40983 0.106284 7.12358C2.07379 4.19358 5.30504 2.44482 8.75004 2.44482C12.195 2.44482 15.4263 4.19358 17.3938 7.12358C17.5863 7.40983 17.51 7.79858 17.2238 7.99108C17.1163 8.06358 16.995 8.09733 16.875 8.09733Z" fill="#666667"/>
<path d="M6.77594 19.9999C6.61469 19.9999 6.45469 19.9387 6.33219 19.8149C6.19594 19.6774 2.99219 16.4087 2.99219 13.2612C2.99219 9.9949 5.57469 7.3374 8.74969 7.3374C11.9247 7.3374 14.5072 9.9949 14.5072 13.2612C14.5072 13.6062 14.2272 13.8862 13.8822 13.8862C13.5372 13.8862 13.2572 13.6062 13.2572 13.2612C13.2572 10.6837 11.2347 8.5874 8.74969 8.5874C6.26469 8.5874 4.24219 10.6837 4.24219 13.2612C4.24219 15.8999 7.18969 18.9049 7.21969 18.9349C7.46219 19.1799 7.46094 19.5762 7.21594 19.8187C7.09344 19.9399 6.93469 19.9999 6.77594 19.9999Z" fill="#00B74F"/>
<path d="M10.7238 20.0004C9.22131 20.0004 5.73506 17.1404 5.39756 13.9554C5.27881 12.8304 5.63631 11.6779 6.35506 10.8741C6.98006 10.1754 7.82381 9.78788 8.73131 9.78288H8.74881C9.63381 9.78288 10.4713 10.1304 11.1063 10.7629C11.7713 11.4241 12.1376 12.3116 12.1376 13.2604V13.6679C12.1376 14.6716 12.9201 15.4879 13.8813 15.4879C14.8426 15.4879 15.6251 14.6716 15.6251 13.6679V13.5254C15.6251 9.63287 12.8051 6.39662 9.20631 6.15537C7.32881 6.02787 5.53006 6.67537 4.14131 7.97412C2.70006 9.32287 1.87256 11.2491 1.87256 13.2591C1.87256 14.9129 2.43256 16.5241 3.44881 17.7954C3.66381 18.0654 3.62006 18.4579 3.35131 18.6741C3.08256 18.8904 2.68881 18.8466 2.47256 18.5766C1.28006 17.0841 0.622559 15.1966 0.622559 13.2604C0.622559 10.9054 1.59381 8.64662 3.28756 7.06287C4.93131 5.52537 7.06381 4.75912 9.29006 4.90912C13.5438 5.19412 16.8751 8.97912 16.8751 13.5266V13.6691C16.8751 15.3616 15.5313 16.7391 13.8813 16.7391C12.2301 16.7391 10.8876 15.3616 10.8876 13.6691V13.2616C10.8876 12.6466 10.6526 12.0741 10.2251 11.6504C9.82506 11.2529 9.30131 11.0341 8.74881 11.0341C8.74506 11.0341 8.74131 11.0341 8.73756 11.0341C8.03381 11.0379 7.56006 11.4029 7.28631 11.7091C6.79881 12.2541 6.55756 13.0441 6.64006 13.8241C6.91631 16.4216 9.90257 18.7504 10.7238 18.7504C11.0688 18.7504 11.3488 19.0304 11.3488 19.3754C11.3488 19.7204 11.0688 20.0004 10.7238 20.0004Z" fill="#00B74F"/>
<path d="M13.0437 18.7773C10.8074 18.7773 8.07617 16.0435 8.07617 12.8535C8.07617 12.5085 8.35617 12.2285 8.70117 12.2285C9.04617 12.2285 9.32617 12.5085 9.32617 12.8535C9.32617 15.3273 11.4049 17.5273 13.0437 17.5273C13.3887 17.5273 13.6687 17.8073 13.6687 18.1523C13.6687 18.4973 13.3887 18.7773 13.0437 18.7773Z" fill="#666667"/>
</svg>
