<svg width="20" height="23" fill="none" xmlns="http://www.w3.org/2000/svg">
    <path fill-rule="evenodd" clip-rule="evenodd" d="M4 10c0-.6.4-1 1-1h8c.6 0 1 .4 1 1s-.4 1-1 1H5c-.6 0-1-.4-1-1zM4 14c0-.6.4-1 1-1h4c.6 0 1 .4 1 1s-.4 1-1 1H5c-.6 0-1-.4-1-1z" fill="#BACDDF"/>
    <path d="m19.56 20.4-.705-.7c.402-.7.604-1.5.604-2.3 0-2.5-2.013-4.6-4.63-4.6-2.515 0-4.629 2-4.629 4.6 0 2.6 2.013 4.6 4.63 4.6.805 0 1.61-.2 2.314-.6l.705.7c.2.2.503.3.805.3.302 0 .604-.1.805-.3.201-.2.302-.5.302-.8.1-.4 0-.7-.202-.9zm-6.944-3.1c0-1.3 1.006-2.3 2.314-2.3s2.315 1 2.315 2.3c0 1.3-1.007 2.3-2.315 2.3s-2.314-1-2.314-2.3z" fill="#BACDDF"/>
    <path d="M3 19c-.6 0-1-.4-1-1V5c0-.6.4-1 1-1h2v1c0 .6.4 1 1 1h6c.6 0 1-.4 1-1V4h2c.6 0 1 .4 1 1v6.9c.7.2 1.4.5 2 .9V5c0-1.7-1.3-3-3-3h-4c0-1.1-.9-2-2-2S7 .9 7 2H3C1.3 2 0 3.3 0 5v13c0 1.7 1.3 3 3 3h7.7c-.5-.6-.9-1.3-1.1-2H3z" fill="#BACDDF"/>
</svg>
