<svg width="16" height="16" viewBox="0 0 16 16" fill="none" xmlns="http://www.w3.org/2000/svg">
<path d="M8.6665 10.4883C9.06504 10.2578 9.33317 9.82685 9.33317 9.33333C9.33317 8.59695 8.73622 8 7.99984 8C7.26346 8 6.6665 8.59695 6.6665 9.33333C6.6665 9.82685 6.93464 10.2578 7.33317 10.4883V11.3333C7.33317 11.7015 7.63165 12 7.99984 12C8.36803 12 8.6665 11.7015 8.6665 11.3333V10.4883Z" fill="#00B74F"/>
<path fill-rule="evenodd" clip-rule="evenodd" d="M4.6665 5.3335V4.66683C4.6665 2.82588 6.15889 1.3335 7.99984 1.3335C9.84079 1.3335 11.3332 2.82588 11.3332 4.66683V5.3335C12.4377 5.3335 13.3332 6.22893 13.3332 7.3335V12.6668C13.3332 13.7714 12.4377 14.6668 11.3332 14.6668H4.6665C3.56193 14.6668 2.6665 13.7714 2.6665 12.6668V7.3335C2.6665 6.22893 3.56193 5.3335 4.6665 5.3335ZM5.99984 4.66683C5.99984 3.56226 6.89527 2.66683 7.99984 2.66683C9.10441 2.66683 9.99984 3.56226 9.99984 4.66683V5.3335H5.99984V4.66683ZM3.99984 7.3335C3.99984 6.96531 4.29831 6.66683 4.6665 6.66683H11.3332C11.7014 6.66683 11.9998 6.96531 11.9998 7.3335V12.6668C11.9998 13.035 11.7014 13.3335 11.3332 13.3335H4.6665C4.29831 13.3335 3.99984 13.035 3.99984 12.6668V7.3335Z" fill="#666667"/>
</svg>
