<svg xmlns="http://www.w3.org/2000/svg" width="24" height="24" fill="none" viewBox="0 0 24 24">
    <path fill="#666667" fill-rule="evenodd" d="M19 11H9c-.552 0-1 .448-1 1v4c0 .552.448 1 1 1h10c.552 0 1-.448 1-1v-4c0-.552-.448-1-1-1zM9 9c-1.657 0-3 1.343-3 3v4c0 1.657 1.343 3 3 3h10c1.657 0 3-1.343 3-3v-4c0-1.657-1.343-3-3-3H9z" clip-rule="evenodd"/>
    <path fill="#666667" fill-rule="evenodd" d="M5 7h10c.552 0 1 .448 1 1v1h2V8c0-1.657-1.343-3-3-3H5C3.343 5 2 6.343 2 8v4c0 1.657 1.343 3 3 3h1v-2H5c-.552 0-1-.448-1-1V8c0-.552.448-1 1-1zM14 16c1.105 0 2-.895 2-2s-.895-2-2-2-2 .895-2 2 .895 2 2 2z" clip-rule="evenodd"/>
    <path fill="#00B74F" d="M11 14c0 .552-.448 1-1 1s-1-.448-1-1 .448-1 1-1 1 .448 1 1zM19 14c0 .552-.448 1-1 1s-1-.448-1-1 .448-1 1-1 1 .448 1 1z"/>
</svg>
