<svg xmlns="http://www.w3.org/2000/svg" width="24" height="24" fill="none" viewBox="0 0 24 24">
    <path fill="#00B74F" fill-rule="evenodd" d="M12 10c-.552 0-1 .448-1 1v5c0 .552.448 1 1 1s1-.448 1-1v-5c0-.552-.448-1-1-1z" clip-rule="evenodd"/>
    <path fill="#00B74F" d="M11 8c0-.552.448-1 1-1s1 .448 1 1-.448 1-1 1-1-.448-1-1z"/>
    <path fill="#666667" fill-rule="evenodd" d="M12 4c-4.418 0-8 3.582-8 8s3.582 8 8 8 8-3.582 8-8-3.582-8-8-8zm0-2C6.477 2 2 6.477 2 12s4.477 10 10 10 10-4.477 10-10S17.523 2 12 2z" clip-rule="evenodd"/>
</svg>
