<svg width="24" height="24" viewBox="0 0 24 24" fill="none" xmlns="http://www.w3.org/2000/svg">
<path fill-rule="evenodd" clip-rule="evenodd" d="M8.62865 5.60852C8.71805 5.25089 9.03939 5 9.40802 5C9.81318 5 10.1549 5.30169 10.2052 5.70372L11.8103 18.5444C11.9856 19.9472 13.1782 21 14.592 21C15.8783 21 16.9996 20.1245 17.3116 18.8766L18.5308 13.9999C18.5206 14 18.5103 14 18.5 14C17.803 14 17.1535 13.7962 16.608 13.445L15.3714 18.3915C15.2819 18.7491 14.9606 19 14.592 19C14.1868 19 13.8451 18.6983 13.7948 18.2963L12.1897 5.45565C12.0144 4.05276 10.8218 3 9.40802 3C8.12165 3 7.00035 3.87548 6.68836 5.12345L5.40859 10.2425C5.2973 10.6877 4.89731 11 4.43845 11H3C2.44772 11 2 11.4477 2 12C2 12.5523 2.44772 13 3 13H4.43845C5.81505 13 7.015 12.0631 7.34887 10.7276L8.62865 5.60852ZM21 12.9495C20.9833 12.9665 20.9665 12.9833 20.9495 13H21V12.9495Z" fill="#666667"/>
<circle cx="18.5" cy="10.5" r="2.5" fill="#00B74F"/>
</svg>
