<svg width="21" height="21" fill="none" xmlns="http://www.w3.org/2000/svg">
    <path fill-rule="evenodd" clip-rule="evenodd" d="M16.053 10.263a4.094 4.094 0 1 1-5.79 5.79 4.094 4.094 0 0 1 5.79-5.79zM18.33 16.5a6.158 6.158 0 1 0-1.714 1.753l1.46 1.377a1.234 1.234 0 1 0 1.685-1.803L18.331 16.5z" fill="#00B74F"/>
    <path fill-rule="evenodd" clip-rule="evenodd" d="M6 1a1 1 0 0 0-2 0v1H3a3 3 0 0 0-3 3v10a3 3 0 0 0 3 3h4.5a7.482 7.482 0 0 1-1.073-2H3a1 1 0 0 1-1-1V5a1 1 0 0 1 1-1h1v1a1 1 0 0 0 2 0V4h6v1a1 1 0 1 0 2 0V4h1a1 1 0 0 1 1 1v1.427c.724.256 1.397.62 2 1.072V5a3 3 0 0 0-3-3h-1V1a1 1 0 1 0-2 0v1H6V1z" fill="#666667"/>
</svg>
