<svg width="24" height="25" fill="none" xmlns="http://www.w3.org/2000/svg">
    <path fill-rule="evenodd" clip-rule="evenodd" d="M7 3.021a.75.75 0 0 1 .75.75v1h8.5v-1a.75.75 0 0 1 1.5 0v1H19a3 3 0 0 1 3 3v12a3 3 0 0 1-3 3H5a3 3 0 0 1-3-3v-12a3 3 0 0 1 3-3h1.25v-1a.75.75 0 0 1 .75-.75zm9.25 3.25v1.5a.75.75 0 0 0 1.5 0v-1.5H19a1.5 1.5 0 0 1 1.5 1.5v3.25h-17v-3.25a1.5 1.5 0 0 1 1.5-1.5h1.25v1.5a.75.75 0 1 0 1.5 0v-1.5h8.5zM3.5 12.521v7.25a1.5 1.5 0 0 0 1.5 1.5h14a1.5 1.5 0 0 0 1.5-1.5v-7.25h-17z" fill="#666667"/>
</svg>
