<svg width="24" height="24" viewBox="0 0 24 24" fill="none" xmlns="http://www.w3.org/2000/svg">
<line x1="3" y1="7.25" x2="22" y2="7.25" stroke="#666667" stroke-width="1.5"/>
<path fill-rule="evenodd" clip-rule="evenodd" d="M5 4.5H21.3571C21.6333 4.5 21.8571 4.72386 21.8571 5V15C21.8571 15.2761 21.6333 15.5 21.3571 15.5H20.1423V17H4.99721C4.99814 17 4.99907 17 5 17H21.3571C22.4617 17 23.3571 16.1046 23.3571 15V5C23.3571 3.89543 22.4617 3 21.3571 3H5C3.89543 3 3 3.89543 3 5V11H4.5V5C4.5 4.72386 4.72386 4.5 5 4.5Z" fill="#666667"/>
<rect x="18" y="10" width="2" height="1" fill="#666667"/>
<path d="M1.36932 13.6364L2.25 15.2472L3.14489 13.6364H4.23295L2.91761 15.8182L4.25568 18H3.1733L2.25 16.429L1.33523 18H0.244318L1.57386 15.8182L0.278409 13.6364H1.36932ZM5.86932 13.6364L6.75 15.2472L7.64489 13.6364H8.73295L7.41761 15.8182L8.75568 18H7.6733L6.75 16.429L5.83523 18H4.74432L6.07386 15.8182L4.77841 13.6364H5.86932ZM10.3693 13.6364L11.25 15.2472L12.1449 13.6364H13.233L11.9176 15.8182L13.2557 18H12.1733L11.25 16.429L10.3352 18H9.24432L10.5739 15.8182L9.27841 13.6364H10.3693ZM14.8693 13.6364L15.75 15.2472L16.6449 13.6364H17.733L16.4176 15.8182L17.7557 18H16.6733L15.75 16.429L14.8352 18H13.7443L15.0739 15.8182L13.7784 13.6364H14.8693Z" fill="#00B74F"/>
</svg>
