<svg width="64" height="64" viewBox="0 0 64 64" fill="none" xmlns="http://www.w3.org/2000/svg">
<g clip-path="url(#clip0_5501_11495)">
<path d="M43.4452 63.9438L32.6623 59.4414C32.2373 59.2639 31.7588 59.2639 31.3338 59.4414L20.551 63.9438C20.079 64.1408 19.5586 63.7941 19.5586 63.2826V41.6562H44.4376V63.2826C44.4376 63.794 43.9171 64.1408 43.4452 63.9438Z" fill="#00B74F"/>
<path d="M37.4141 41.6562V61.4241L43.4484 63.9438C43.9204 64.1408 44.4408 63.7941 44.4408 63.2826V41.6562H37.4141Z" fill="#139F4F"/>
<path d="M34.4553 1.03988C35.4827 2.10063 37.0752 2.3815 38.4035 1.736C40.1393 0.892375 42.229 1.653 43.0165 3.415C43.619 4.76312 45.0195 5.57175 46.4883 5.4195C48.4081 5.2205 50.1116 6.64987 50.249 8.575C50.3541 10.048 51.3936 11.2867 52.8258 11.646C54.6978 12.1156 55.8097 14.0414 55.2803 15.8974C54.8753 17.3175 55.4285 18.837 56.6515 19.6646C58.25 20.7461 58.6361 22.9361 57.504 24.4991C56.6377 25.695 56.6377 27.3121 57.504 28.5081C58.6362 30.0711 58.2501 32.2611 56.6515 33.3426C55.4283 34.1701 54.8753 35.6898 55.2803 37.1099C55.8097 38.9659 54.6978 40.8918 52.8258 41.3613C51.3935 41.7205 50.3541 42.9594 50.249 44.4323C50.1116 46.3574 48.4081 47.7868 46.4883 47.5877C45.0195 47.4355 43.6191 48.244 43.0165 49.5923C42.229 51.3543 40.1393 52.1149 38.4035 51.2713C37.0752 50.6258 35.4827 50.9066 34.4553 51.9674C33.1126 53.3538 30.889 53.3538 29.5462 51.9674C28.5188 50.9066 26.9263 50.6258 25.5982 51.2713C23.8623 52.1149 21.7727 51.3543 20.9852 49.5923C20.3827 48.2441 18.9822 47.4355 17.5133 47.5877C15.5936 47.7868 13.8901 46.3574 13.7527 44.4323C13.6476 42.9593 12.6081 41.7205 11.1758 41.3613C9.30384 40.8916 8.19196 38.9659 8.72134 37.1099C9.12634 35.6898 8.57321 34.1702 7.35021 33.3426C5.75171 32.2611 5.36559 30.0711 6.49771 28.5081C7.36396 27.3123 7.36396 25.6951 6.49771 24.4991C5.36547 22.9361 5.75159 20.7461 7.35021 19.6646C8.57334 18.8371 9.12634 17.3175 8.72134 15.8974C8.19196 14.0414 9.30384 12.1155 11.1758 11.646C12.6082 11.2867 13.6476 10.0479 13.7527 8.575C13.8901 6.64987 15.5936 5.2205 17.5133 5.4195C18.9822 5.57175 20.3826 4.76325 20.9852 3.415C21.7727 1.653 23.8623 0.892375 25.5982 1.736C26.9263 2.3815 28.519 2.10063 29.5462 1.03988C30.889 -0.346625 33.1127 -0.346625 34.4553 1.03988Z" fill="#FFD15C"/>
<path d="M57.5049 28.5081C56.6387 27.3123 56.6387 25.6951 57.5049 24.4991C58.6372 22.9361 58.251 20.7461 56.6524 19.6646C55.4293 18.8371 54.8763 17.3175 55.2813 15.8974C55.8107 14.0414 54.6988 12.1155 52.8268 11.646C51.3944 11.2867 50.355 10.0479 50.2499 8.575C50.1125 6.64987 48.409 5.2205 46.4893 5.4195C45.0204 5.57175 43.62 4.76325 43.0174 3.415C42.2299 1.653 40.1403 0.892375 38.4044 1.736C37.0762 2.3815 35.4837 2.10063 34.4563 1.03988C33.1135 -0.346625 30.8899 -0.346625 29.5472 1.03988C29.238 1.359 28.8772 1.60612 28.4883 1.78013C29.3918 2.18438 30.4489 2.18725 31.3775 1.736C33.1134 0.892375 35.203 1.653 35.9905 3.415C36.593 4.76325 37.9935 5.57175 39.4624 5.4195C41.3822 5.2205 43.0857 6.64987 43.223 8.575C43.3282 10.048 44.3677 11.2867 45.7999 11.646C47.6719 12.1156 48.7838 14.0414 48.2544 15.8974C47.8494 17.3175 48.4025 18.837 49.6255 19.6646C51.224 20.7461 51.6102 22.9361 50.478 24.4991C49.6118 25.695 49.6118 27.3121 50.478 28.5081C51.6103 30.0711 51.2242 32.2611 49.6255 33.3426C48.4024 34.1701 47.8494 35.6898 48.2544 37.1099C48.7838 38.9659 47.6719 40.8918 45.7999 41.3613C44.3675 41.7205 43.3282 42.9594 43.223 44.4323C43.0857 46.3574 41.3822 47.7868 39.4624 47.5877C37.9935 47.4355 36.5932 48.244 35.9905 49.5923C35.203 51.3543 33.1134 52.1149 31.3775 51.2713C30.449 50.82 29.3918 50.8229 28.4883 51.2271C28.8772 51.4011 29.238 51.6483 29.5472 51.9674C30.8899 53.3539 33.1135 53.3539 34.4563 51.9674C35.4837 50.9066 37.0762 50.6258 38.4044 51.2713C40.1403 52.1149 42.2299 51.3543 43.0174 49.5923C43.6199 48.244 45.0204 47.4355 46.4893 47.5877C48.409 47.7868 50.1125 46.3574 50.2499 44.4323C50.355 42.9593 51.3945 41.7205 52.8268 41.3613C54.6988 40.8916 55.8107 38.9659 55.2813 37.1099C54.8763 35.6898 55.4294 34.1702 56.6524 33.3426C58.251 32.2611 58.6372 30.0713 57.5049 28.5081Z" fill="#FFD15C"/>
<path d="M32.0002 46.0941C42.8194 46.0941 51.5902 37.3233 51.5902 26.5041C51.5902 15.6848 42.8194 6.91406 32.0002 6.91406C21.1809 6.91406 12.4102 15.6848 12.4102 26.5041C12.4102 37.3233 21.1809 46.0941 32.0002 46.0941Z" fill="#F8B64C"/>
<path d="M32.0008 6.91406C30.7797 6.91406 29.585 7.02681 28.4258 7.24056C37.5375 8.92094 44.4403 16.9057 44.4403 26.5036C44.4403 36.1014 37.5375 44.0862 28.4258 45.7667C29.585 45.9804 30.7797 46.0932 32.0008 46.0932C42.8198 46.0932 51.5903 37.3227 51.5903 26.5037C51.5903 15.6847 42.8198 6.91406 32.0008 6.91406Z" fill="#F8B64C"/>
<path d="M34.0156 28.2161V32.3493C34.0156 34.8626 35.6354 35.7842 37.7856 35.7842C39.908 35.7842 41.5556 34.8626 41.5556 32.3493V28.2161C41.5556 25.7027 39.908 24.7813 37.7856 24.7813C35.6354 24.7811 34.0156 25.7027 34.0156 28.2161ZM39.545 28.2161V32.3493C39.545 33.4943 38.8748 33.9969 37.7856 33.9969C36.6965 33.9969 36.0543 33.4943 36.0543 32.3493V28.2161C36.0543 27.0712 36.6965 26.5685 37.7856 26.5685C38.8748 26.5685 39.545 27.0711 39.545 28.2161Z" fill="white"/>
<path d="M36.6946 14.1953C36.3595 14.1953 36.0243 14.3349 35.8568 14.6981L25.6078 35.2238C25.5241 35.3634 25.4961 35.5031 25.4961 35.6427C25.4961 36.1454 25.943 36.6761 26.5852 36.6761C26.9762 36.6761 27.3672 36.4806 27.5347 36.1454L37.7836 15.7034C37.8395 15.5638 37.8673 15.4242 37.8673 15.2566C37.8675 14.6142 37.2531 14.1953 36.6946 14.1953Z" fill="white"/>
<path d="M25.4419 15.2852C23.2916 15.2852 21.6719 16.2068 21.6719 18.7202V22.8532C21.6719 25.3665 23.2916 26.2882 25.4419 26.2882C27.5642 26.2882 29.2119 25.3665 29.2119 22.8532V18.7202C29.212 16.2067 27.5644 15.2852 25.4419 15.2852ZM27.2013 22.8532C27.2013 23.9982 26.531 24.5008 25.4419 24.5008C24.3527 24.5008 23.7105 23.998 23.7105 22.8532V18.7202C23.7105 17.5752 24.3527 17.0725 25.4419 17.0725C26.531 17.0725 27.2013 17.5752 27.2013 18.7202V22.8532Z" fill="white"/>
</g>
<defs>
<clipPath id="clip0_5501_11495">
<rect width="64" height="64" fill="white"/>
</clipPath>
</defs>
</svg>
