<svg width="19" height="24" viewBox="0 0 19 24" fill="none" xmlns="http://www.w3.org/2000/svg">
<path d="M17.6641 0.620712C17.2624 0.435707 16.7891 0.507641 16.4605 0.803582L14.9008 2.18466L12.7788 0.286444C12.3524 -0.0954812 11.707 -0.0954812 11.2807 0.286444L9.16037 2.18286L7.03955 0.286444C6.61312 -0.0954812 5.96762 -0.0954812 5.54119 0.286444L3.41858 2.18466L1.85738 0.803638C1.39673 0.394176 0.691323 0.435707 0.281862 0.896365C0.0985425 1.10261 -0.00188397 1.3695 2.67726e-05 1.64543V22.3546C-0.00362612 22.9718 0.493786 23.4751 1.11101 23.4788C1.387 23.4804 1.65389 23.3798 1.86019 23.1964L3.41993 21.8153L5.54198 23.7136C5.9683 24.0955 6.61374 24.0955 7.04006 23.7136L9.16037 21.8169L11.281 23.7133C11.7074 24.0952 12.3529 24.0952 12.7794 23.7133L14.902 21.8152L16.4632 23.1962C16.9238 23.6058 17.6292 23.5644 18.0387 23.1038C18.2222 22.8975 18.3226 22.6304 18.3207 22.3543V1.64543C18.3263 1.20332 18.068 0.800378 17.6641 0.620712ZM15.6443 20.9733C15.2179 20.5956 14.5762 20.5973 14.1518 20.9773L12.0298 22.8755L9.90944 20.9791C9.48306 20.5971 8.83756 20.5971 8.41119 20.9791L6.2906 22.8755L4.1677 20.9773C3.74498 20.5974 3.10431 20.5956 2.67951 20.9733L1.124 22.3539V19.3583L1.11838 1.64572L2.67642 3.02646C3.1028 3.40417 3.74458 3.40248 4.16894 3.02247L6.29093 1.12431L8.4113 3.02072C8.83768 3.40265 9.48317 3.40265 9.90955 3.02072L12.0301 1.12431L14.153 3.02247C14.5758 3.40242 15.2164 3.40417 15.6412 3.02651L17.1967 1.64543V15.8812L17.2024 22.3541L15.6443 20.9733Z" fill="#666667"/>
</svg>
